<svg width="44" height="44" viewBox="0 0 44 44" fill="none" xmlns="http://www.w3.org/2000/svg">
<path d="M5.02698 22.0017C5.026 21.344 5.28627 20.7137 5.75056 20.2494C6.21484 19.7852 6.84514 19.5249 7.5028 19.5259L19.9056 19.5462L19.8854 7.14327C19.8956 6.49308 20.1608 5.87371 20.6239 5.41864C21.087 4.96351 21.7109 4.70913 22.3612 4.71022C23.0116 4.71125 23.6363 4.96771 24.1009 5.4243C24.5655 5.8809 24.8327 6.50114 24.8451 7.1514L24.8654 19.5543L37.2683 19.5746C37.9185 19.5869 38.5388 19.8542 38.9954 20.3187C39.452 20.7834 39.7084 21.4081 39.7095 22.0584C39.7106 22.7088 39.4562 23.3326 39.0011 23.7958C38.546 24.2589 37.9266 24.5241 37.2764 24.5343L24.8735 24.514L24.8938 36.9169C24.8836 37.5671 24.6184 38.1865 24.1553 38.6416C23.6922 39.0966 23.0683 39.3511 22.4179 39.35C21.7676 39.3489 21.1429 39.0925 20.6783 38.6359C20.2137 38.1793 19.9464 37.559 19.9341 36.9088L19.9137 24.5059L7.51092 24.4856C6.85326 24.4845 6.2221 24.2221 5.75629 23.7563C5.29049 23.2905 5.02815 22.6594 5.02698 22.0017Z" fill="#D6002F"/>
</svg>
