<svg width="27" height="33" viewBox="0 0 27 33" fill="none" xmlns="http://www.w3.org/2000/svg">
<g clip-path="url(#clip0_244_45)">
<path d="M22.3269 17.548C22.373 22.5165 26.6856 24.1699 26.7333 24.191C26.6969 24.3076 26.0443 26.5473 24.4613 28.8607C23.0929 30.8607 21.6726 32.8534 19.4353 32.8947C17.2369 32.9352 16.5301 31.5911 14.0167 31.5911C11.5041 31.5911 10.7187 32.8534 8.6377 32.9352C6.47814 33.0169 4.83366 30.7724 3.45386 28.7797C0.634425 24.7035 -1.52021 17.2614 1.37292 12.2379C2.81017 9.74314 5.37863 8.16338 8.16647 8.12287C10.2871 8.08242 12.2887 9.54956 13.5851 9.54956C14.8806 9.54956 17.313 7.78519 19.8701 8.04431C20.9406 8.08887 23.9455 8.47673 25.875 11.301C25.7195 11.3974 22.2896 13.3942 22.3269 17.548ZM18.1953 5.34757C19.3418 3.95975 20.1135 2.02777 19.903 0.105469C18.2503 0.17189 16.2519 1.20673 15.0665 2.59379C14.0042 3.8221 13.0738 5.78808 13.3249 7.67234C15.1669 7.81485 17.0487 6.73628 18.1953 5.34757Z" fill="white"/>
</g>
<defs>
<clipPath id="clip0_244_45">
<rect width="26.7333" height="32.8945" fill="white" transform="translate(0 0.105469)"/>
</clipPath>
</defs>
</svg>
