<svg width="30" height="30" viewBox="0 0 30 30" fill="none" xmlns="http://www.w3.org/2000/svg">
<path fill-rule="evenodd" clip-rule="evenodd" d="M9.1775 6.23125C9.705 5.32625 9.96875 4.875 10.3362 4.54625C10.6613 4.25525 11.0437 4.03554 11.4587 3.90125C11.9275 3.75 12.45 3.75 13.4962 3.75H16.5025C17.55 3.75 18.0725 3.75 18.5412 3.90125C18.9563 4.03554 19.3387 4.25525 19.6637 4.54625C20.0312 4.875 20.295 5.32625 20.8225 6.23125L21.5625 7.5H22.5C24.25 7.5 25.125 7.5 25.7937 7.84C26.3816 8.13987 26.8594 8.61813 27.1587 9.20625C27.5 9.875 27.5 10.75 27.5 12.5V20C27.5 21.75 27.5 22.625 27.1587 23.2937C26.8592 23.8814 26.3814 24.3592 25.7937 24.6587C25.125 25 24.25 25 22.5 25H7.5C5.75 25 4.875 25 4.20625 24.6587C3.61813 24.3594 3.13987 23.8816 2.84 23.2937C2.5 22.625 2.5 21.75 2.5 20V12.5C2.5 10.75 2.5 9.875 2.84 9.20625C3.13966 8.61794 3.61794 8.13966 4.20625 7.84C4.875 7.5 5.75 7.5 7.5 7.5H8.4375L9.1775 6.23125ZM15 21.3125C16.5747 21.3125 18.0849 20.6869 19.1984 19.5734C20.3119 18.4599 20.9375 16.9497 20.9375 15.375C20.9375 13.8003 20.3119 12.2901 19.1984 11.1766C18.0849 10.0631 16.5747 9.4375 15 9.4375C13.4253 9.4375 11.9151 10.0631 10.8016 11.1766C9.68806 12.2901 9.0625 13.8003 9.0625 15.375C9.0625 16.9497 9.68806 18.4599 10.8016 19.5734C11.9151 20.6869 13.4253 21.3125 15 21.3125ZM18.375 15.375C18.375 16.2701 18.0194 17.1285 17.3865 17.7615C16.7535 18.3944 15.8951 18.75 15 18.75C14.1049 18.75 13.2464 18.3944 12.6135 17.7615C11.9806 17.1285 11.625 16.2701 11.625 15.375C11.625 14.4799 11.9806 13.6214 12.6135 12.9885C13.2464 12.3556 14.1049 12 15 12C15.8951 12 16.7535 12.3556 17.3865 12.9885C18.0194 13.6214 18.375 14.4799 18.375 15.375Z" fill="black"/>
</svg>
