<svg width="44" height="44" viewBox="0 0 44 44" fill="none" xmlns="http://www.w3.org/2000/svg">
<path d="M6.25439 6.25487C6.8539 5.65554 7.66692 5.31885 8.51464 5.31885C9.36236 5.31885 10.1754 5.65554 10.7749 6.25487L22.0793 17.5593L33.3838 6.25487C33.9867 5.67252 34.7943 5.35029 35.6325 5.35757C36.4708 5.36485 37.2726 5.70108 37.8653 6.29382C38.4581 6.88656 38.7943 7.6884 38.8016 8.52663C38.8089 9.36486 38.4866 10.1724 37.9043 10.7754L26.5998 22.0798L37.9043 33.3843C38.4866 33.9872 38.8089 34.7948 38.8016 35.633C38.7943 36.4713 38.4581 37.2731 37.8653 37.8658C37.2726 38.4586 36.4708 38.7948 35.6325 38.8021C34.7943 38.8094 33.9867 38.4871 33.3838 37.9048L22.0793 26.6003L10.7749 37.9048C10.1719 38.4871 9.36437 38.8094 8.52614 38.8021C7.68791 38.7948 6.88607 38.4586 6.29333 37.8658C5.70059 37.2731 5.36437 36.4713 5.35708 35.633C5.3498 34.7948 5.67203 33.9872 6.25439 33.3843L17.5588 22.0798L6.25439 10.7754C5.65505 10.1759 5.31836 9.36284 5.31836 8.51512C5.31836 7.66741 5.65505 6.85439 6.25439 6.25487Z" fill="black"/>
</svg>
