<svg width="24" height="24" viewBox="0 0 24 24" fill="none" xmlns="http://www.w3.org/2000/svg">
<g clip-path="url(#clip0_280_8)">
<g clip-path="url(#clip1_280_8)">
<path d="M10.9592 16.632L9.97419 15.405L8.54119 13.62L7.55719 12.394C7.16219 11.903 7.34919 11.501 7.97019 11.501L9.87819 11.501C9.98419 10.758 10.3222 7.92701 10.4112 7.30301C10.5172 6.56101 10.9792 6.01301 11.6732 6.01301L11.6762 6.01301C12.3712 6.01301 12.8332 6.56101 12.9392 7.30301C13.0282 7.92701 13.3662 10.758 13.4722 11.501L15.3802 11.501C16.0012 11.501 16.1872 11.902 15.7932 12.393L14.8102 13.62L13.3762 15.405L12.3922 16.632C11.9972 17.122 11.3522 17.122 10.9592 16.632Z" fill="black"/>
<path d="M22 5L22 19C22 20.6569 20.6569 22 19 22L5 22C3.34315 22 2 20.6569 2 19L2 5C2 3.34314 3.34315 2 5 2L19 2C20.6569 2 22 3.34315 22 5Z" stroke="black" stroke-width="2.5"/>
</g>
</g>
<defs>
<clipPath id="clip0_280_8">
<rect width="24" height="24" fill="white" transform="translate(24) rotate(90)"/>
</clipPath>
<clipPath id="clip1_280_8">
<rect width="24" height="24" fill="white" transform="matrix(4.37114e-08 -1 -1 -4.37114e-08 24 24)"/>
</clipPath>
</defs>
</svg>
