<svg width="24" height="24" viewBox="0 0 24 24" fill="none" xmlns="http://www.w3.org/2000/svg">
<path d="M23.2352 10.95H21.4952V20.475H2.50516V4.92H12.0002V3H2.50516C2.26281 3.0076 2.02443 3.06369 1.80411 3.16495C1.58379 3.26621 1.38599 3.41059 1.2224 3.58956C1.05881 3.76854 0.932732 3.97848 0.851624 4.20699C0.770515 4.43549 0.736015 4.67794 0.750162 4.92V20.475C0.742151 20.7134 0.781205 20.951 0.865089 21.1743C0.948974 21.3976 1.07604 21.6021 1.23904 21.7763C1.40203 21.9504 1.59775 22.0907 1.815 22.1891C2.03225 22.2876 2.26677 22.3423 2.50516 22.35H21.4952C21.7336 22.3423 21.9681 22.2876 22.1853 22.1891C22.4026 22.0907 22.5983 21.9504 22.7613 21.7763C22.9243 21.6021 23.0513 21.3976 23.1352 21.1743C23.2191 20.951 23.2582 20.7134 23.2502 20.475L23.2352 10.95Z" fill="#D6002F"/>
<path d="M15.8402 4.30491L9.33024 10.8299L8.67024 11.4899L8.55024 11.6099L6.27024 16.3499C6.11726 16.6542 6.0641 16.999 6.1183 17.3353C6.1725 17.6715 6.3313 17.9822 6.57214 18.223C6.81299 18.4638 7.12361 18.6226 7.45987 18.6768C7.79613 18.731 8.14092 18.6779 8.44524 18.5249L13.1552 16.2299L13.9502 15.4349L14.5952 14.7899L21.1052 8.24991L21.7802 7.58991L22.1552 7.21491C22.7671 6.60184 23.1108 5.77107 23.1108 4.90491C23.1108 4.03874 22.7671 3.20797 22.1552 2.59491C21.5451 1.98916 20.72 1.64944 19.8602 1.64991C18.9959 1.64874 18.1659 1.98827 17.5502 2.59491L16.5002 3.62991L15.8252 4.28991L15.8402 4.30491ZM8.26524 16.4999L10.0352 12.8549L11.9102 14.7449L8.26524 16.4999ZM11.2652 11.4599L17.1152 5.59491L19.0652 7.55991L13.2752 13.4999L11.2652 11.4599ZM19.7852 3.49491C19.9665 3.49429 20.1461 3.52979 20.3135 3.59932C20.4809 3.66886 20.6328 3.77104 20.7602 3.89991C21.0195 4.16119 21.1649 4.51434 21.1649 4.88241C21.1649 5.25047 21.0195 5.60362 20.7602 5.86491L20.3852 6.22491L18.4352 4.27491L18.8102 3.89991C18.9456 3.7666 19.1082 3.66408 19.2868 3.59936C19.4654 3.53464 19.6559 3.50925 19.8452 3.52491L19.7852 3.49491Z" fill="#D6002F"/>
</svg>
