<svg width="41" height="41" viewBox="0 0 41 41" fill="none" xmlns="http://www.w3.org/2000/svg">
<g clip-path="url(#clip0_288_9)">
<path fill-rule="evenodd" clip-rule="evenodd" d="M27.3333 22.7778H29.6111C29.6111 27.8097 25.5319 31.8889 20.5 31.8889C15.4681 31.8889 11.3889 27.8097 11.3889 22.7778H13.6667C13.6667 26.5517 16.7261 29.6111 20.5 29.6111C24.2739 29.6111 27.3333 26.5517 27.3333 22.7778ZM20.5 41C31.8218 41 41 31.8218 41 20.5C41 9.17816 31.8218 0 20.5 0C9.17816 0 0 9.17816 0 20.5C0 31.8218 9.17816 41 20.5 41ZM20.5 38.7222C30.5639 38.7222 38.7222 30.5639 38.7222 20.5C38.7222 10.4361 30.5639 2.27778 20.5 2.27778C10.4361 2.27778 2.27778 10.4361 2.27778 20.5C2.27778 30.5639 10.4361 38.7222 20.5 38.7222ZM13.6667 18.2222C14.9246 18.2222 15.9444 17.2024 15.9444 15.9444C15.9444 14.6865 14.9246 13.6667 13.6667 13.6667C12.4087 13.6667 11.3889 14.6865 11.3889 15.9444C11.3889 17.2024 12.4087 18.2222 13.6667 18.2222ZM27.3333 18.2222C28.5913 18.2222 29.6111 17.2024 29.6111 15.9444C29.6111 14.6865 28.5913 13.6667 27.3333 13.6667C26.0753 13.6667 25.0556 14.6865 25.0556 15.9444C25.0556 17.2024 26.0753 18.2222 27.3333 18.2222Z" fill="black"/>
</g>
<defs>
<clipPath id="clip0_288_9">
<rect width="41" height="41" fill="white"/>
</clipPath>
</defs>
</svg>
