<svg width="65" height="65" viewBox="0 0 65 65" fill="none" xmlns="http://www.w3.org/2000/svg">
<path d="M62.9603 32.6851C62.9583 15.8643 49.3225 2.22852 32.4997 2.22852C15.6769 2.22852 2.03906 15.8663 2.03906 32.6891C2.03906 47.8321 13.0891 60.3934 27.5637 62.7516L27.7384 62.776V41.4926H20.0034V32.6851H27.7384V25.9779C27.6998 25.6387 27.6795 25.2446 27.6795 24.8465C27.6795 18.9091 32.4936 14.0951 38.4309 14.0951C38.7173 14.0951 39.0017 14.1073 39.2841 14.1276L39.2475 14.1255C41.683 14.1601 44.0392 14.3754 46.3386 14.7593L46.0664 14.7207V22.216H42.2233C42.0486 22.1916 41.8475 22.1774 41.6444 22.1774C39.213 22.1774 37.2406 24.1477 37.2406 26.5812C37.2406 26.7193 37.2467 26.8554 37.2589 26.9915L37.2569 26.9732V32.6851H45.7048L44.3541 41.4926H37.2569V62.776C51.9083 60.3913 62.9583 47.828 62.9603 32.6851Z" fill="#4285F4"/>
</svg>
