<svg width="123" height="78" viewBox="0 0 123 78" fill="none" xmlns="http://www.w3.org/2000/svg">
<g clip-path="url(#clip0_263_2)">
<path fill-rule="evenodd" clip-rule="evenodd" d="M93.1195 20.9199L92.5495 10.4299L110.83 0.189944C111.94 -0.210056 112.73 -0.0100559 113.07 1.02994L114 11.6499C115.85 12.7899 120.77 16.0099 122.33 17.4199C122.78 17.8299 123.05 18.3499 122.76 19.1299C122.61 19.5399 122.26 19.9199 121.65 20.2499L107.92 28.2799C106.7 28.9899 105.22 30.1099 103.78 30.0199C103.14 29.9799 102.54 29.7299 101.97 29.2999L95.1595 24.3599L91.1795 26.3299C91.7395 27.7599 92.0995 29.2699 92.2795 30.8799C92.6595 34.1599 92.1095 37.6599 90.3695 41.1399C89.3795 43.1099 87.9195 45.2199 86.1795 47.3799C84.4695 49.4999 82.4695 51.6899 80.3795 53.8599C77.4995 56.8399 74.4495 59.7599 71.6995 62.3899C70.0895 63.9299 68.5895 65.3699 67.3295 66.6199L57.7795 76.0899L56.4395 77.4199L55.0795 76.1099L47.1895 68.5099C45.7495 67.1199 44.0795 65.5999 42.3395 64.0099C32.9295 55.4299 21.5795 45.0899 21.1195 32.2799C21.1095 31.9699 21.1095 31.6399 21.1095 31.3099C21.1795 26.1699 23.2295 21.9199 26.4495 18.9199C29.6395 15.9399 33.9695 14.1999 38.6395 14.0399C38.9595 14.0299 39.2995 14.0199 39.6495 14.0299C47.7895 14.1399 51.5095 17.7099 56.3595 22.4699C60.3595 18.2299 63.6795 14.7499 70.4395 13.9799C74.3395 13.5299 78.1595 14.3099 81.4795 15.9799C83.6995 17.0899 85.6995 18.5999 87.3595 20.3999C87.3095 20.4199 87.2695 20.4399 87.2195 20.4699L56.2895 37.8299C55.5495 38.2399 55.2895 39.1699 55.6995 39.9099C56.1095 40.6499 57.0395 40.9099 57.7795 40.4999C69.5895 33.8699 81.1695 27.1799 93.1195 20.9199ZM17.5795 60.4799L26.5595 55.1899L29.9995 59.3299L20.3795 64.6199L26.4395 68.8399L27.5795 69.6299C29.3295 70.8499 29.4895 73.0199 27.0095 72.8399L1.51952 73.8599C0.789519 73.7599 0.329519 73.4499 0.129519 72.9399C0.00951899 72.6299 -0.030481 72.2399 0.029519 71.7799C0.279519 69.8199 11.3495 54.6899 13.3195 51.8499C14.6595 49.9299 17.1295 47.1699 17.3195 51.7599L17.5795 60.4799Z" fill="#D6002F"/>
</g>
<defs>
<clipPath id="clip0_263_2">
<rect width="122.88" height="77.44" fill="white"/>
</clipPath>
</defs>
</svg>
