<svg width="30" height="30" viewBox="0 0 30 30" fill="none" xmlns="http://www.w3.org/2000/svg">
<path d="M25 14.6875C24.797 14.6884 24.5994 14.6225 24.4375 14.5L15 7.425L5.5625 14.5C5.36359 14.6491 5.11356 14.7132 4.86743 14.6781C4.62128 14.6429 4.39919 14.5114 4.25 14.3125C4.10083 14.1136 4.03676 13.8635 4.07193 13.6174C4.10709 13.3712 4.23859 13.1491 4.4375 13L14.4375 5.5C14.5997 5.37829 14.7971 5.3125 15 5.3125C15.2029 5.3125 15.4002 5.37829 15.5625 5.5L25.5625 13C25.744 13.1474 25.8639 13.3574 25.8986 13.5886C25.9332 13.8199 25.8802 14.0557 25.75 14.25C25.6704 14.3787 25.5602 14.486 25.4295 14.5622C25.2987 14.6385 25.1512 14.6815 25 14.6875Z" fill="black"/>
<path d="M22.5 24.6875H7.5C7.25236 24.6842 7.01579 24.5845 6.84066 24.4094C6.66555 24.2343 6.56574 23.9976 6.5625 23.75V11.875C6.5625 11.6264 6.66127 11.3879 6.83709 11.2121C7.0129 11.0363 7.25136 10.9375 7.5 10.9375C7.74864 10.9375 7.9871 11.0363 8.16291 11.2121C8.33873 11.3879 8.4375 11.6264 8.4375 11.875V22.8125H21.5625V11.875C21.5625 11.6264 21.6612 11.3879 21.8371 11.2121C22.0129 11.0363 22.2514 10.9375 22.5 10.9375C22.7486 10.9375 22.9871 11.0363 23.1629 11.2121C23.3387 11.3879 23.4375 11.6264 23.4375 11.875V23.75C23.4342 23.9976 23.3345 24.2343 23.1594 24.4094C22.9842 24.5845 22.7476 24.6842 22.5 24.6875Z" fill="black"/>
<path d="M17.5 24.6875C17.2524 24.6842 17.0157 24.5845 16.8406 24.4094C16.6655 24.2342 16.5658 23.9976 16.5625 23.75V15.9375H13.4375V23.75C13.4375 23.9986 13.3388 24.2371 13.1629 24.4129C12.9871 24.5887 12.7486 24.6875 12.5 24.6875C12.2514 24.6875 12.0129 24.5887 11.8371 24.4129C11.6613 24.2371 11.5625 23.9986 11.5625 23.75V15C11.5657 14.7524 11.6656 14.5157 11.8407 14.3406C12.0158 14.1655 12.2524 14.0657 12.5 14.0625H17.5C17.7476 14.0657 17.9843 14.1655 18.1594 14.3406C18.3345 14.5157 18.4342 14.7524 18.4375 15V23.75C18.4342 23.9976 18.3345 24.2342 18.1594 24.4094C17.9843 24.5845 17.7476 24.6842 17.5 24.6875Z" fill="black"/>
</svg>
