<svg width="40" height="40" viewBox="0 0 40 40" fill="none" xmlns="http://www.w3.org/2000/svg">
<path fill-rule="evenodd" clip-rule="evenodd" d="M25.4168 31.7031H21.9085H21.9012H18.0987H18.0925H14.5831V33.4505H25.4168V31.7031ZM25.4168 33.9622H14.5831V35.7095H16.964H16.9713H23.0298H23.0359H25.4168V33.9622ZM22.7738 36.2213H17.227V37.9687H22.7738V36.2213ZM25.0298 11.6669C25.1495 11.4651 25.2597 11.2674 25.3595 11.0739C26.0481 9.7468 26.2562 8.70664 25.8204 8.27195C25.3846 7.83508 24.3445 8.0432 23.0183 8.73164C22.8259 8.83156 22.6273 8.94383 22.4255 9.06242C22.5804 9.74063 22.7063 10.4936 22.7938 11.2987C23.1795 11.3402 23.555 11.3922 23.9149 11.4505C24.3039 11.5129 24.6763 11.5857 25.0298 11.6669ZM16.9827 19.4509C17.1751 19.3511 17.3727 19.2409 17.5755 19.1202C17.4195 18.442 17.2947 17.6911 17.2073 16.886C16.9026 16.8527 16.6062 16.8132 16.3191 16.7695C15.8448 16.6988 15.3945 16.6135 14.9712 16.5158C14.8516 16.7196 14.7413 16.9173 14.6415 17.1087C13.9529 18.4357 13.7449 19.4759 14.1796 19.9128C14.6165 20.3473 15.6566 20.1395 16.9827 19.4509ZM17.6307 12.3074C17.7264 12.2077 17.8232 12.11 17.9209 12.0122C18.0187 11.9143 18.1175 11.8166 18.2153 11.7229C18.0321 11.7354 17.8523 11.7479 17.6745 11.7646C17.6577 11.9435 17.6431 12.1245 17.6307 12.3074ZM22.0802 16.1703C21.9813 16.2701 21.8835 16.3659 21.7858 16.4616C21.9677 16.4491 22.1487 16.4345 22.3266 16.418C22.3432 16.2391 22.3579 16.0602 22.3704 15.8771C22.2747 15.9749 22.1779 16.0727 22.0802 16.1703ZM19.5975 10.4728C19.062 10.0463 18.5377 9.66992 18.0343 9.34539C17.9969 9.52211 17.9604 9.7032 17.9262 9.88828C17.847 10.3188 17.7804 10.7723 17.7264 11.2487C18.0738 11.2175 18.4305 11.1946 18.7935 11.178C19.0619 10.9325 19.3302 10.6975 19.5975 10.4728ZM20.414 11.1551C20.2756 11.0345 20.1372 10.9158 20 10.8014C19.8628 10.9159 19.7254 11.0345 19.5871 11.1551C19.7234 11.153 19.8617 11.1509 20 11.1509C20.1394 11.1509 20.2766 11.153 20.414 11.1551ZM23.2908 14.0923C23.1763 13.955 23.0579 13.8156 22.9382 13.6784C22.9402 13.8156 22.9413 13.953 22.9413 14.0923C22.9413 14.2296 22.9402 14.3691 22.9382 14.5042C23.0579 14.3669 23.1763 14.2296 23.2908 14.0923ZM24.7449 16.0581C24.4224 15.5548 24.0449 15.0305 23.6195 14.4959C23.3948 14.7621 23.1597 15.0305 22.9144 15.2988C22.8977 15.6628 22.8748 16.0185 22.8445 16.3659C23.5239 16.289 24.1614 16.1849 24.7449 16.0581ZM22.4244 19.1202C22.6273 19.2408 22.8248 19.351 23.0183 19.4508C24.3445 20.1394 25.3846 20.3473 25.8204 19.9127C26.2561 19.4757 26.0481 18.4356 25.3595 17.1085C25.2598 16.9172 25.1495 16.7195 25.0298 16.5177C24.3507 16.6716 23.5988 16.7963 22.7938 16.8859C22.7198 17.5557 22.621 18.188 22.5004 18.7726C22.4763 18.8914 22.4504 19.0057 22.4244 19.1202ZM20.4035 17.7098C20.9391 18.1362 21.4634 18.5127 21.9657 18.8373L22.001 18.6709C22.1123 18.1321 22.204 17.5518 22.2747 16.9359C21.9262 16.9652 21.5704 16.9901 21.2074 17.0067C20.9392 17.2522 20.6709 17.4851 20.4035 17.7098ZM19.587 17.0296C19.7254 17.1502 19.8627 17.2667 19.9999 17.381C20.1371 17.2667 20.2756 17.1502 20.4139 17.0296C20.2766 17.0316 20.1393 17.0316 19.9999 17.0316C19.8616 17.0316 19.7243 17.0316 19.587 17.0296ZM17.5901 15.0908C17.8127 15.3301 18.0436 15.5713 18.2828 15.8105C18.522 16.0477 18.7613 16.2807 19.0016 16.5033C19.3291 16.5157 19.663 16.5219 20 16.5219C20.3381 16.5219 20.6719 16.5157 20.9984 16.5033C21.2387 16.2806 21.4791 16.0477 21.7183 15.8105C21.9576 15.5713 22.1884 15.3301 22.411 15.0908C22.4234 14.7642 22.4296 14.4293 22.4296 14.0923C22.4296 13.7532 22.4234 13.4204 22.411 13.0939C22.1884 12.8526 21.9575 12.6134 21.7183 12.3741C21.4791 12.1348 21.2398 11.9038 20.9995 11.6814C20.672 11.669 20.3381 11.6627 20.0001 11.6627C19.6631 11.6627 19.3292 11.669 19.0016 11.6814C18.7613 11.9039 18.5221 12.1349 18.2829 12.3741C18.0437 12.6134 17.8128 12.8526 17.5902 13.0939C17.5777 13.4205 17.5714 13.7532 17.5714 14.0923C17.5713 14.4293 17.5776 14.7621 17.5901 15.0908ZM16.7101 14.0923C16.8245 14.2296 16.942 14.3669 17.0627 14.5042C17.0606 14.3691 17.0596 14.2295 17.0596 14.0923C17.0596 13.953 17.0605 13.8156 17.0627 13.6784C16.9421 13.8156 16.8246 13.955 16.7101 14.0923ZM15.255 12.1265C15.5786 12.6299 15.9561 13.1541 16.3815 13.6888C16.6062 13.4224 16.8412 13.1521 17.0866 12.8837C17.1032 12.5217 17.1261 12.1659 17.1563 11.8186C16.4772 11.8957 15.8396 11.9996 15.255 12.1265ZM14.6414 11.0739C14.7412 11.2674 14.8516 11.4651 14.9711 11.6669C15.6493 11.5109 16.4012 11.3859 17.2073 11.2987C17.2645 10.7744 17.3373 10.271 17.4248 9.79664C17.4716 9.54492 17.5214 9.29961 17.5755 9.06242C17.3727 8.9418 17.1752 8.83156 16.9827 8.73164C15.6566 8.0432 14.6165 7.83508 14.1796 8.27195C13.7448 8.70664 13.9528 9.7468 14.6414 11.0739ZM19.5964 17.7098C19.3302 17.4851 19.0619 17.2523 18.7934 17.0067C18.4305 16.9901 18.0738 16.9672 17.7263 16.9359C17.8044 17.6162 17.9084 18.2527 18.0352 18.8373C18.5377 18.5127 19.0619 18.1362 19.5964 17.7098ZM22.9144 12.8837C23.1598 13.1541 23.3948 13.4224 23.6195 13.6888C24.0449 13.1541 24.4224 12.6279 24.7459 12.1265C24.4547 12.0621 24.1499 12.0038 23.8327 11.9539C23.5145 11.9019 23.1847 11.8561 22.8446 11.8187C22.8748 12.166 22.8977 12.5217 22.9144 12.8837ZM21.7848 11.7229C21.8836 11.8166 21.9814 11.9143 22.0802 12.0122C22.1779 12.11 22.2747 12.2077 22.3693 12.3074C22.3568 12.1245 22.3432 11.9435 22.3266 11.7646C22.1488 11.75 21.9678 11.7354 21.7848 11.7229ZM20.4035 10.4728C20.6709 10.6975 20.9391 10.9325 21.2074 11.178C21.5704 11.1946 21.9262 11.2175 22.2736 11.2487C22.1966 10.5685 22.0927 9.92977 21.9657 9.34734C21.4634 9.66984 20.9392 10.0484 20.4035 10.4728ZM17.0867 15.2988C16.8412 15.0305 16.6062 14.7621 16.3816 14.4959C15.9562 15.0305 15.5787 15.5548 15.2551 16.0581C15.6149 16.135 15.9956 16.2037 16.3952 16.2641C16.6416 16.3015 16.8965 16.3348 17.1564 16.3659C17.1262 16.0185 17.1023 15.6628 17.0867 15.2988ZM17.9209 16.1703C17.8231 16.0727 17.7263 15.9748 17.6317 15.8771C17.6442 16.0602 17.6577 16.2411 17.6743 16.418C17.8521 16.4345 18.032 16.4491 18.2152 16.4616C18.1174 16.3659 18.0186 16.2681 17.9209 16.1703ZM19.146 6.08156C19.0961 6.03164 19.0265 6.00242 18.9505 6.00242C18.8746 6.00242 18.805 6.03164 18.7549 6.08156C18.705 6.13148 18.6748 6.20219 18.6748 6.27703C18.6748 6.35406 18.705 6.42258 18.7549 6.4725C18.7685 6.48516 18.7821 6.49766 18.7966 6.50789L18.8662 6.54125C18.8819 6.54547 18.8975 6.54953 18.9141 6.55172H18.9152H18.9194L18.933 6.55367H18.9339H18.9361H18.9402H18.9434H18.9454H18.9474H18.9505C19.0265 6.55367 19.0962 6.52258 19.146 6.4725C19.1959 6.42258 19.2272 6.35406 19.2272 6.27703V6.275V6.27086L19.2261 6.26656V6.26453V6.2625V6.26047V6.25844V6.25625V6.25211L19.2252 6.25V6.24805V6.24594V6.24375L19.2241 6.24164V6.23969V6.23766V6.23563V6.23344H19.2231V6.23125V6.22922L19.222 6.22719V6.22523C19.2116 6.17094 19.1846 6.12109 19.146 6.08156ZM19.6671 5.95047L19.6723 5.96297L19.6743 5.96711L19.6775 5.97539L19.6795 5.97953L19.6888 6.00242L19.6899 6.00672V6.00875L19.692 6.01289L19.694 6.01703L19.7014 6.04187L19.7023 6.04414L19.7034 6.04609L19.7065 6.05656L19.7076 6.0607L19.7087 6.06273V6.06469L19.7107 6.07109L19.7116 6.07523L19.718 6.10008L19.7191 6.10438L19.72 6.11055L19.7211 6.11477L19.7221 6.11891L19.7232 6.12516L19.7241 6.12938L19.7252 6.13352V6.13766V6.13984L19.7263 6.14398L19.7273 6.14812V6.15023L19.7284 6.15438L19.7293 6.15852L19.7304 6.16477V6.16891L19.7315 6.17523V6.17727L19.7324 6.1793V6.18547L19.7335 6.18758V6.18969V6.19578V6.19805L19.7345 6.2V6.20617L19.7356 6.2082V6.21039V6.21445V6.21656V6.2207L19.7366 6.225V6.22695V6.23109V6.23539L19.7377 6.23742V6.24148V6.24578V6.24789V6.25195V6.25609V6.25828V6.26242V6.26656V6.27281V6.27695C19.7377 6.49531 19.6493 6.69305 19.5079 6.83453C19.3655 6.97602 19.1677 7.06539 18.9505 7.06539H18.9473H18.9453H18.9433H18.9401H18.937H18.9349H18.9329H18.9309H18.9298H18.9277H18.9266H18.9246H18.9226H18.9205H18.9195H18.9174H18.9143H18.9123H18.9102L18.9091 7.06336H18.9071H18.9039H18.8998H18.8966H18.8946H18.8914H18.8905H18.8894H18.8863H18.8842L18.8686 7.06133H18.8655H18.8634C18.8374 7.05703 18.8114 7.05297 18.7853 7.04883C18.5483 7.52734 18.337 8.12641 18.1592 8.82117C18.749 9.19148 19.3689 9.63461 20.0002 10.1421C20.6325 9.63461 21.2525 9.19148 21.8421 8.82117C21.7829 8.59242 21.7215 8.37391 21.6559 8.16797C21.2047 6.74313 20.617 5.86109 20.0002 5.86109C19.9138 5.86109 19.8296 5.87781 19.7484 5.91109L19.6671 5.95047ZM27.5739 12.9587C27.6238 12.9086 27.655 12.8401 27.655 12.763C27.655 12.6881 27.6238 12.6174 27.5739 12.5675C27.524 12.5176 27.4544 12.4864 27.3784 12.4864C27.3024 12.4864 27.2328 12.5176 27.1827 12.5675C27.163 12.5884 27.1453 12.6112 27.132 12.6382L27.112 12.6881L27.108 12.7091L27.1017 12.763C27.1017 12.8401 27.1328 12.9086 27.1827 12.9587C27.2328 13.0086 27.3024 13.0397 27.3784 13.0397H27.3816H27.3825H27.3857H27.3877H27.3888H27.3918H27.393H27.3961H27.3991H27.4012L27.4034 13.0376H27.4053H27.4065H27.4095H27.4147H27.4167L27.4241 13.0356H27.4271H27.4303C27.4855 13.0252 27.5354 12.9961 27.5739 12.9587ZM27.8465 13.3975C27.7508 13.4681 27.6395 13.518 27.5177 13.539H27.5147L27.4846 13.5431L27.4794 13.5452H27.4782H27.4721H27.4689L27.4658 13.5473H27.4596H27.4585H27.4534H27.4492H27.447L27.4409 13.5493H27.4388H27.4346H27.4295H27.4284H27.4221H27.4191H27.4159L27.4096 13.5514H27.4087H27.4035H27.3984H27.3972H27.391H27.389H27.3848H27.3785C27.1612 13.5514 26.9636 13.462 26.8209 13.3205C26.6795 13.179 26.5912 12.9815 26.5912 12.763C26.5912 12.7338 26.5923 12.7047 26.5954 12.6756C26.2074 12.5196 25.7623 12.3761 25.2714 12.2491C24.9012 12.84 24.458 13.4599 23.9504 14.0922C24.458 14.7225 24.9012 15.3425 25.2714 15.9331C25.4991 15.8748 25.7175 15.8125 25.9245 15.746C27.3494 15.2966 28.2314 14.708 28.2314 14.0921C28.2314 13.959 28.1877 13.8259 28.1056 13.6969C28.041 13.5952 27.9535 13.4952 27.8465 13.3975ZM20.3141 22.6544C20.3921 22.7313 20.4981 22.7793 20.6148 22.7793C20.7323 22.7793 20.8383 22.7314 20.9152 22.6565C20.9923 22.5775 21.0391 22.4714 21.0391 22.3549C21.0391 22.2384 20.9923 22.1322 20.9164 22.0553C20.8966 22.0366 20.8758 22.0179 20.8529 22.0034L20.8331 21.9909L20.8311 21.9888H20.8291L20.8259 21.9867H20.8248L20.8218 21.9848H20.8207L20.8175 21.9827L20.8166 21.9807H20.8134L20.8123 21.9786L20.8081 21.9765H20.807L20.804 21.9745H20.8029L20.7987 21.9724L20.7945 21.9704L20.7903 21.9684H20.7892L20.7851 21.9663L20.7809 21.9641H20.7798L20.7766 21.9622H20.7757H20.7714L20.7704 21.9601L20.7652 21.9581C20.7444 21.9518 20.7226 21.9456 20.7009 21.9393H20.6987L20.6894 21.9373H20.681H20.6801L20.6758 21.9353H20.6738H20.6717H20.6686H20.6666H20.6634L20.6624 21.9332H20.6583H20.6571H20.653H20.6488H20.6477H20.6435H20.6425H20.6382H20.6362L20.6341 21.9313H20.631H20.629H20.6259H20.6248H20.6205H20.6196H20.6145C20.4979 21.9313 20.3918 21.979 20.3148 22.0539C20.2379 22.1328 20.1911 22.239 20.1911 22.3555C20.1952 22.4137 20.1952 22.4262 20.2077 22.472L20.2088 22.4761L20.2099 22.4823L20.212 22.4865C20.232 22.5503 20.2683 22.6085 20.3141 22.6544ZM20.7769 21.4333C20.8591 21.4478 20.936 21.4728 21.0089 21.5061L21.0109 21.5082C21.3313 20.9882 21.6143 20.2537 21.842 19.3635C21.2523 18.9933 20.6324 18.5502 20 18.0427C19.3687 18.5482 18.7488 18.9933 18.1591 19.3615C18.2142 19.5798 18.2735 19.7878 18.3359 19.9855C18.7103 21.1816 19.1815 22.0012 19.686 22.2466L19.687 22.2362L19.688 22.2279L19.689 22.2237L19.6901 22.2176V22.2133L19.6912 22.2072L19.6921 22.2009L19.6932 22.1967L19.6941 22.1904L19.6952 22.1863L19.6963 22.178L19.6984 22.1675L19.7004 22.1573L19.7015 22.155L19.7024 22.1489L19.7035 22.1446L19.7045 22.1384L19.7065 22.1321L19.7076 22.128L19.7096 22.1219V22.1197L19.7116 22.1116L19.7127 22.1095L19.7148 22.1012V22.0991L19.718 22.0908V22.0887L19.7211 22.0805V22.0781L19.7231 22.0719L19.7252 22.0677L19.7263 22.0616L19.7283 22.0552L19.7292 22.0533L19.7324 22.0449H19.7335L19.7366 22.0345L19.7397 22.0263V22.0241L19.7429 22.0159L19.7449 22.0139L19.747 22.0077L19.7491 22.0035L19.7501 21.9972L19.7533 21.993L19.7574 21.9806H19.7585L19.7627 21.9723L19.7659 21.9619H19.767L19.77 21.9535L19.772 21.9515L19.7752 21.9453L19.7772 21.941L19.7794 21.9369L19.7814 21.9308L19.7834 21.9285L19.7866 21.9204L19.7875 21.9184L19.7927 21.91L19.797 21.9016L19.798 21.8997L19.802 21.8934L19.8031 21.8913L19.8063 21.8852L19.8095 21.8809L19.8115 21.8768L19.8147 21.8706L19.8167 21.8684L19.8209 21.8623L19.822 21.8602L19.8272 21.8519L19.8323 21.8436H19.8334L19.8374 21.8374L19.8396 21.8331L19.8427 21.829L19.8459 21.8248L19.8479 21.8206L19.8521 21.8145L19.8541 21.8124L19.8583 21.8061L19.8594 21.8041L19.8655 21.7978L19.8708 21.7896L19.8719 21.7876L19.8771 21.7813L19.8791 21.7792L19.8833 21.7751L19.8864 21.7709L19.8896 21.7667L19.8928 21.7625L19.8948 21.7584L19.9 21.7542L19.9009 21.7521L19.9073 21.7438L19.9134 21.7375L19.9145 21.7355L19.9198 21.7293L19.9229 21.7273L19.927 21.723L19.9302 21.7189L19.9333 21.7169L19.9375 21.7105L19.9395 21.7086L19.9457 21.7022H19.9468L19.9531 21.6961C20.1237 21.5255 20.3577 21.4195 20.6146 21.4195H20.6207H20.6259H20.627H20.6312L20.6363 21.4214H20.6395H20.6416H20.6467H20.6509H20.652H20.6571H20.6623H20.6633H20.6676H20.6727H20.6748H20.678L20.6841 21.4235H20.6861H20.6883H20.6934H20.6985H20.6996H20.7048L20.7089 21.4255H20.7101H20.7142H20.7205H20.7215L20.7258 21.4277H20.7309H20.733H20.7361L20.7402 21.4297H20.7454H20.7506L20.7558 21.4317H20.7568H20.761H20.7663H20.7683L20.7713 21.4337H20.7769V21.4333ZM21.0192 13.073C20.7592 12.813 20.3984 12.6508 20 12.6508C19.6027 12.6508 19.2418 12.813 18.9808 13.073C18.7207 13.333 18.5595 13.693 18.5595 14.0923C18.5595 14.4897 18.7207 14.8495 18.9808 15.1117C19.2418 15.3716 19.6027 15.5319 20 15.5319C20.3984 15.5319 20.7592 15.3716 21.0192 15.1117C21.2793 14.8496 21.4405 14.4897 21.4405 14.0923C21.4405 13.693 21.2793 13.333 21.0192 13.073ZM20 12.139C20.5388 12.139 21.0265 12.3596 21.3791 12.711C21.7328 13.0669 21.9523 13.5534 21.9523 14.0923C21.9523 14.6289 21.7328 15.1178 21.3812 15.4715C21.0265 15.825 20.5388 16.0434 20 16.0434C19.4623 16.0434 18.9745 15.825 18.6209 15.4715C18.2673 15.1178 18.0488 14.6289 18.0488 14.0923C18.0488 13.5535 18.2672 13.0669 18.6198 12.7132C18.9745 12.3596 19.4623 12.139 20 12.139ZM15.696 20.6719C15.8282 20.622 15.9759 20.6887 16.0257 20.8198C16.0767 20.9508 16.0101 21.0984 15.8792 21.1504C15.3113 21.3667 14.7934 21.4438 14.3533 21.4124C13.8509 21.3771 13.4433 21.1981 13.1707 20.9154C12.9086 20.6429 12.7235 20.2455 12.6736 19.7566C12.6298 19.3406 12.6839 18.8537 12.8723 18.3297C12.919 18.1964 13.0657 18.1259 13.1988 18.1737C13.3309 18.2216 13.4006 18.3672 13.3537 18.5002C13.1926 18.9517 13.1458 19.3594 13.1812 19.7048C13.2186 20.0748 13.3517 20.3682 13.537 20.5617C13.7231 20.753 14.0154 20.878 14.3898 20.905C14.758 20.9298 15.202 20.8612 15.696 20.6719ZM26.5588 8.12016C26.4599 8.02031 26.4599 7.85805 26.5588 7.7582C26.6587 7.65844 26.8208 7.65844 26.9207 7.7582C27.2619 8.09922 27.3784 8.61727 27.2962 9.26219C27.2173 9.87578 26.953 10.6205 26.5318 11.4402C26.4673 11.567 26.3134 11.6148 26.1885 11.5525C26.0637 11.488 26.0138 11.3341 26.0783 11.2091C26.4736 10.4395 26.7191 9.75312 26.7908 9.19758C26.8521 8.71508 26.7814 8.34273 26.5588 8.12016ZM13.1374 7.52102C13.2395 7.42531 13.4016 7.43164 13.4973 7.53344C13.593 7.6375 13.5868 7.79766 13.4838 7.89336C13.254 8.10758 13.1687 8.47781 13.2134 8.96266C13.2644 9.52008 13.4838 10.2169 13.8498 10.9991C13.9092 11.1259 13.8541 11.2777 13.7271 11.3381C13.5992 11.3984 13.4473 11.3423 13.3891 11.2154C12.9981 10.3792 12.7609 9.62617 12.7058 9.00828C12.6465 8.36133 12.7827 7.84977 13.1374 7.52102ZM21.6455 28.2936H18.3545V31.1915H21.6455V28.2936ZM18.0987 27.782H21.9012C22.0428 27.782 22.157 27.8964 22.157 28.0378V31.1914H25.4168V26.6357C25.4178 26.5421 25.4708 26.4505 25.5624 26.4069C27.7455 25.3543 29.5845 23.7005 30.8659 21.662C32.1035 19.69 32.8212 17.3538 32.8212 14.8515C32.8212 11.311 31.3858 8.10539 29.0655 5.78602C26.7461 3.46656 23.5404 2.03125 19.9999 2.03125C16.4605 2.03125 13.2539 3.46648 10.9345 5.78602C8.61508 8.10539 7.17969 11.311 7.17969 14.8515C7.17969 17.3538 7.89641 19.69 9.13516 21.662C10.4124 23.6963 12.2471 25.3459 14.425 26.4006C14.5166 26.438 14.583 26.5295 14.583 26.6357V31.1914H17.8428V28.0378C17.8429 27.8964 17.9583 27.782 18.0987 27.782ZM13.0698 15.097C12.9762 15.0035 12.8463 14.9452 12.7027 14.9452C12.5603 14.9452 12.4302 15.0035 12.3366 15.097C12.2441 15.1905 12.1858 15.3216 12.1858 15.4631C12.1858 15.6067 12.2441 15.7356 12.3377 15.8294C12.4313 15.9229 12.5603 15.9811 12.7027 15.9811C12.8463 15.9811 12.9753 15.9229 13.0689 15.8294C13.1624 15.7357 13.2206 15.6067 13.2206 15.4631C13.2206 15.3196 13.1623 15.1905 13.0698 15.097ZM13.5358 16.1017C13.5077 16.1391 13.4787 16.1725 13.4453 16.2058C13.256 16.3971 12.9929 16.5137 12.7027 16.5137C12.4136 16.5137 12.1504 16.3971 11.9602 16.2058C11.7709 16.0164 11.6534 15.7544 11.6534 15.4631C11.6534 15.328 11.6793 15.199 11.7251 15.0805C11.6023 14.9578 11.5026 14.8287 11.4276 14.6998C11.3164 14.5043 11.2582 14.3005 11.2582 14.0923C11.2582 13.2249 12.2763 12.4698 13.9219 11.9497C14.0924 11.8958 14.2713 11.8437 14.4543 11.7938C14.3586 11.6295 14.2703 11.4672 14.188 11.3071C13.3934 9.77609 13.2062 8.52172 13.8188 7.91016C14.4304 7.29852 15.6848 7.48367 17.2167 8.27828C17.3759 8.36148 17.5382 8.45102 17.7035 8.5468C17.8877 7.86242 18.1051 7.26539 18.3473 6.78484C18.233 6.6475 18.1632 6.4707 18.1632 6.27719C18.1632 6.06086 18.2516 5.86336 18.3942 5.72187C18.5357 5.57836 18.7332 5.49094 18.9506 5.49094C19.0785 5.49094 19.1992 5.52211 19.3053 5.57406C19.3874 5.52008 19.4717 5.47633 19.557 5.44102C19.7026 5.3807 19.8513 5.34953 20.0001 5.34953C20.8665 5.34953 21.6227 6.36875 22.1427 8.01406C22.1967 8.18484 22.2487 8.36148 22.2977 8.54672C22.463 8.45094 22.6252 8.36148 22.7843 8.2782C24.3154 7.48359 25.5708 7.29844 26.1823 7.91008C26.7939 8.52164 26.6077 9.77609 25.813 11.307C25.7298 11.4672 25.6415 11.6295 25.5458 11.7958C26.0127 11.9207 26.4381 12.0601 26.8137 12.214L26.8209 12.2077C26.9635 12.0642 27.161 11.9769 27.3784 11.9769C27.5957 11.9769 27.7935 12.0642 27.9359 12.2077C28.0774 12.3493 28.1658 12.5468 28.1658 12.7631C28.1658 12.8359 28.1565 12.9087 28.1377 12.9753C28.3041 13.1188 28.4373 13.2687 28.5361 13.4225C28.6712 13.6368 28.743 13.8595 28.743 14.0923C28.743 14.9578 27.7238 15.7128 26.0784 16.2349C25.9078 16.2891 25.7299 16.339 25.5459 16.3889C25.6416 16.5553 25.731 16.7177 25.8131 16.8757C26.6078 18.4067 26.7941 19.661 26.1825 20.2726C25.5709 20.8862 24.3155 20.6991 22.7845 19.9044C22.6253 19.8212 22.4631 19.7318 22.2967 19.6361C22.0523 20.5492 21.7464 21.3044 21.3991 21.8451C21.4948 21.9929 21.5509 22.1675 21.5509 22.3548C21.5509 22.6127 21.4459 22.8457 21.2763 23.0141C21.1057 23.1847 20.8727 23.2908 20.6148 23.2908C20.3579 23.2908 20.1239 23.1847 19.9555 23.0161C19.8952 22.9559 19.843 22.8873 19.8004 22.8144C19.0131 22.6688 18.3287 21.6724 17.8483 20.1372C17.7982 19.977 17.7495 19.8085 17.7036 19.6379C17.5383 19.7316 17.3759 19.8209 17.2168 19.9041C15.6848 20.6988 14.4304 20.8859 13.8189 20.2723C13.2063 19.6608 13.3935 18.4064 14.1881 16.8755C14.2713 16.7174 14.3598 16.553 14.4555 16.3887C14.1276 16.3014 13.8197 16.2037 13.5358 16.1017ZM28.4685 28.9199C28.5642 28.9199 28.6651 28.8575 28.6973 28.7764C28.7826 28.6058 28.6526 28.4081 28.4685 28.4081H27.9567C27.861 28.4081 27.7601 28.4705 27.7268 28.5516C27.6427 28.7223 27.7716 28.9199 27.9567 28.9199H28.4685ZM30.5122 28.9199C30.609 28.9199 30.7098 28.8575 30.742 28.7764C30.8273 28.6058 30.6973 28.4081 30.5122 28.4081H30.0016C29.9048 28.4081 29.8038 28.4705 29.7716 28.5516C29.6864 28.7223 29.8165 28.9199 30.0016 28.9199H30.5122ZM9.88617 33.825C9.98281 33.825 10.0837 33.7604 10.1159 33.6794C10.2012 33.5087 10.0713 33.3132 9.88617 33.3132H9.37445C9.27875 33.3132 9.17781 33.3755 9.14563 33.4567C9.06039 33.6273 9.18922 33.825 9.37445 33.825H9.88617ZM11.9309 33.825C12.0266 33.825 12.1285 33.7604 12.1598 33.6794C12.245 33.5087 12.116 33.3132 11.9309 33.3132H11.4192C11.3235 33.3132 11.2216 33.3755 11.1904 33.4567C11.105 33.6273 11.234 33.825 11.4192 33.825H11.9309ZM13.9748 33.825C14.0714 33.825 14.1723 33.7604 14.2046 33.6794C14.2898 33.5087 14.1598 33.3132 13.9748 33.3132H13.4641C13.3673 33.3132 13.2664 33.3755 13.2341 33.4567C13.1489 33.6273 13.2788 33.825 13.4641 33.825H13.9748ZM9.88617 32.1898C9.98281 32.1898 10.0837 32.1275 10.1159 32.0463C10.2012 31.8758 10.0713 31.6781 9.88617 31.6781H9.37445C9.27875 31.6781 9.17781 31.7406 9.14563 31.8216C9.06039 31.9923 9.18922 32.1898 9.37445 32.1898H9.88617ZM11.9309 32.1898C12.0266 32.1898 12.1285 32.1275 12.1598 32.0463C12.245 31.8758 12.116 31.6781 11.9309 31.6781H11.4192C11.3235 31.6781 11.2216 31.7406 11.1904 31.8216C11.105 31.9923 11.234 32.1898 11.4192 32.1898H11.9309ZM13.9748 32.1898C14.0714 32.1898 14.1723 32.1275 14.2046 32.0463C14.2898 31.8758 14.1598 31.6781 13.9748 31.6781H13.4641C13.3673 31.6781 13.2664 31.7406 13.2341 31.8216C13.1489 31.9923 13.2788 32.1898 13.4641 32.1898H13.9748ZM9.88617 30.5548C9.98281 30.5548 10.0837 30.4924 10.1159 30.4114C10.2012 30.2408 10.0713 30.0432 9.88617 30.0432H9.37445C9.27875 30.0432 9.17781 30.1056 9.14563 30.1868C9.06039 30.3573 9.18922 30.5548 9.37445 30.5548H9.88617ZM11.9309 30.5548C12.0266 30.5548 12.1285 30.4924 12.1598 30.4114C12.245 30.2408 12.116 30.0432 11.9309 30.0432H11.4192C11.3235 30.0432 11.2216 30.1056 11.1904 30.1868C11.105 30.3573 11.234 30.5548 11.4192 30.5548H11.9309ZM13.9748 30.5548C14.0714 30.5548 14.1723 30.4924 14.2046 30.4114C14.2898 30.2408 14.1598 30.0432 13.9748 30.0432H13.4641C13.3673 30.0432 13.2664 30.1056 13.2341 30.1868C13.1489 30.3573 13.2788 30.5548 13.4641 30.5548H13.9748ZM9.88617 28.9199C9.98281 28.9199 10.0837 28.8575 10.1159 28.7764C10.2012 28.6058 10.0713 28.4081 9.88617 28.4081H9.37445C9.27875 28.4081 9.17781 28.4705 9.14563 28.5516C9.06039 28.7223 9.18922 28.9199 9.37445 28.9199H9.88617ZM11.9309 28.9199C12.0266 28.9199 12.1285 28.8575 12.1598 28.7764C12.245 28.6058 12.116 28.4081 11.9309 28.4081H11.4192C11.3235 28.4081 11.2216 28.4705 11.1904 28.5516C11.105 28.7223 11.234 28.9199 11.4192 28.9199H11.9309ZM13.9748 28.9199C14.0714 28.9199 14.1723 28.8575 14.2046 28.7764C14.2898 28.6058 14.1598 28.4081 13.9748 28.4081H13.4641C13.3673 28.4081 13.2664 28.4705 13.2341 28.5516C13.1489 28.7223 13.2788 28.9199 13.4641 28.9199H13.9748ZM26.4237 33.825C26.5204 33.825 26.6211 33.7604 26.6535 33.6794C26.7387 33.5087 26.6087 33.3132 26.4237 33.3132H25.913C25.8162 33.3132 25.7153 33.3755 25.6831 33.4567C25.5978 33.6273 25.7277 33.825 25.913 33.825H26.4237ZM28.4685 33.825C28.5642 33.825 28.6651 33.7604 28.6973 33.6794C28.7826 33.5087 28.6526 33.3132 28.4685 33.3132H27.9567C27.861 33.3132 27.7601 33.3755 27.7268 33.4567C27.6427 33.6273 27.7716 33.825 27.9567 33.825H28.4685ZM30.5122 33.825C30.609 33.825 30.7098 33.7604 30.742 33.6794C30.8273 33.5087 30.6973 33.3132 30.5122 33.3132H30.0016C29.9048 33.3132 29.8038 33.3755 29.7716 33.4567C29.6864 33.6273 29.8165 33.825 30.0016 33.825H30.5122ZM26.4237 32.1898C26.5204 32.1898 26.6211 32.1275 26.6535 32.0463C26.7387 31.8758 26.6087 31.6781 26.4237 31.6781H25.913C25.8162 31.6781 25.7153 31.7406 25.6831 31.8216C25.5978 31.9923 25.7277 32.1898 25.913 32.1898H26.4237ZM28.4685 32.1898C28.5642 32.1898 28.6651 32.1275 28.6973 32.0463C28.7826 31.8758 28.6526 31.6781 28.4685 31.6781H27.9567C27.861 31.6781 27.7601 31.7406 27.7268 31.8216C27.6427 31.9923 27.7716 32.1898 27.9567 32.1898H28.4685ZM30.5122 32.1898C30.609 32.1898 30.7098 32.1275 30.742 32.0463C30.8273 31.8758 30.6973 31.6781 30.5122 31.6781H30.0016C29.9048 31.6781 29.8038 31.7406 29.7716 31.8216C29.6864 31.9923 29.8165 32.1898 30.0016 32.1898H30.5122ZM26.4237 30.5548C26.5204 30.5548 26.6211 30.4924 26.6535 30.4114C26.7387 30.2408 26.6087 30.0432 26.4237 30.0432H25.913C25.8162 30.0432 25.7153 30.1056 25.6831 30.1868C25.5978 30.3573 25.7277 30.5548 25.913 30.5548H26.4237ZM28.4685 30.5548C28.5642 30.5548 28.6651 30.4924 28.6973 30.4114C28.7826 30.2408 28.6526 30.0432 28.4685 30.0432H27.9567C27.861 30.0432 27.7601 30.1056 27.7268 30.1868C27.6427 30.3573 27.7716 30.5548 27.9567 30.5548H28.4685ZM30.5122 30.5548C30.609 30.5548 30.7098 30.4924 30.742 30.4114C30.8273 30.2408 30.6973 30.0432 30.5122 30.0432H30.0016C29.9048 30.0432 29.8038 30.1056 29.7716 30.1868C29.6864 30.3573 29.8165 30.5548 30.0016 30.5548H30.5122ZM25.913 28.4081C25.8162 28.4081 25.7153 28.4705 25.6831 28.5516C25.5978 28.7223 25.7277 28.9199 25.913 28.9199H26.4237C26.5204 28.9199 26.6211 28.8575 26.6535 28.7764C26.7387 28.6058 26.6087 28.4081 26.4237 28.4081H25.913ZM12.7027 14.4126C12.9918 14.4126 13.255 14.5312 13.4452 14.7205C13.6345 14.9119 13.7531 15.174 13.7531 15.463C13.7531 15.5213 13.7489 15.5776 13.7395 15.6337C14.0423 15.7419 14.373 15.8418 14.7298 15.9332C15.099 15.3445 15.5431 14.7226 16.0506 14.0923C15.5431 13.46 15.1001 12.8402 14.7298 12.2514C14.5019 12.3095 14.2835 12.372 14.0755 12.4365C12.6506 12.8878 11.7697 13.4745 11.7697 14.0922C11.7697 14.2108 11.8039 14.3293 11.8705 14.4459C11.9122 14.5166 11.9641 14.5894 12.0276 14.6601C12.2118 14.5063 12.4469 14.4126 12.7027 14.4126Z" fill="#D6002F"/>
</svg>
