<svg width="38" height="38" viewBox="0 0 38 38" fill="none" xmlns="http://www.w3.org/2000/svg">
<path d="M19.0003 37.3332C8.87483 37.3332 0.666992 29.1253 0.666992 18.9998C0.666992 8.87434 8.87483 0.666504 19.0003 0.666504C29.1258 0.666504 37.3337 8.87434 37.3337 18.9998C37.3337 29.1253 29.1258 37.3332 19.0003 37.3332ZM17.7243 30.8542C18.8793 30.8542 20.1663 30.3262 21.7503 28.1812L23.4205 25.9445C23.4693 25.8791 23.5046 25.8046 23.5242 25.7254C23.5438 25.6462 23.5474 25.5639 23.5348 25.4833C23.5222 25.4027 23.4935 25.3254 23.4506 25.256C23.4077 25.1866 23.3513 25.1265 23.2848 25.0792C23.1442 24.9799 22.9718 24.9362 22.8008 24.9565C22.6298 24.9768 22.4724 25.0597 22.359 25.1892L19.6548 28.2673C19.5926 28.3381 19.5094 28.3871 19.4174 28.4072C19.3254 28.4273 19.2294 28.4175 19.1433 28.3792C19.0598 28.3425 18.9919 28.2775 18.9517 28.1957C18.9114 28.1138 18.9014 28.0204 18.9233 27.9318L22.3297 14.2808C22.3673 14.1321 22.3669 13.9762 22.3285 13.8276C22.2902 13.679 22.215 13.5425 22.11 13.4305C22.005 13.3186 21.8736 13.2349 21.7277 13.1871C21.5819 13.1393 21.4264 13.1289 21.2755 13.157L15.1338 14.2808C15.0131 14.303 14.9012 14.3594 14.8115 14.4432C14.7218 14.527 14.6581 14.6348 14.6278 14.7538L14.4702 15.3662C14.4528 15.434 14.4512 15.5049 14.4655 15.5734C14.4798 15.6419 14.5096 15.7062 14.5526 15.7615C14.5956 15.8167 14.6507 15.8613 14.7136 15.892C14.7765 15.9226 14.8457 15.9384 14.9157 15.9382H18.0873L15.3813 26.7952C15.2823 27.2242 15.1173 27.9502 15.1173 28.4782C15.1173 29.6992 15.8433 30.8542 17.7243 30.8542ZM21.0793 11.5382C22.3663 11.5382 23.3563 10.7792 23.6203 9.62417C23.6863 9.36017 23.7193 9.06317 23.7193 8.86517C23.7193 7.94117 22.9933 7.08317 21.6403 7.08317C20.3533 7.08317 19.3633 7.84217 19.0993 8.99717C19.0381 9.24568 19.0049 9.50027 19.0003 9.75617C19.0003 10.6802 19.7263 11.5382 21.0793 11.5382Z" fill="white"/>
</svg>
