<svg width="48" height="48" viewBox="0 0 48 48" fill="none" xmlns="http://www.w3.org/2000/svg">
<path d="M24 46C36.7025 46 47 35.7025 47 23C47 10.2975 36.7025 0 24 0C11.2975 0 1 10.2975 1 23C1 35.7025 11.2975 46 24 46Z" fill="#FFCE52"/>
<path d="M23.9464 3.00004C36.1004 2.96704 45.9694 11.447 46.0004 21.94H46.9754C46.6815 16.0345 44.1246 10.469 39.8355 6.39897C35.5464 2.32896 29.8545 0.0671351 23.9417 0.0830917C18.0289 0.0990483 12.3494 2.39156 8.08226 6.48466C3.81516 10.5778 1.28832 16.157 1.02637 22.064H2.00037C1.96937 11.566 11.8004 3.03304 23.9464 3.00004Z" fill="#FFE369"/>
<path d="M46 21.94C46.026 32.434 36.2 40.967 24.049 41C11.898 41.033 2.026 32.553 2 22.06H1.026C1.012 22.392 1.002 22.725 1.003 23.06C1.01944 29.16 3.45842 35.0036 7.78338 39.3053C12.1083 43.607 17.965 46.0145 24.065 45.998C30.165 45.9816 36.0086 43.5426 40.3103 39.2176C44.612 34.8927 47.0194 29.036 47.003 22.936C47.003 22.6 46.99 22.268 46.975 21.936L46 21.94Z" fill="#FFB32B"/>
<path d="M37.2725 8.27511C37.5937 7.95194 37.4896 7.32764 37.0399 6.88069C36.5902 6.43374 35.9653 6.33339 35.6441 6.65656C35.3229 6.97972 35.427 7.60402 35.8767 8.05097C36.3264 8.49793 36.9514 8.59827 37.2725 8.27511Z" fill="#F6FAFD"/>
<path d="M30.5985 3.38744C30.7593 3.22567 30.7074 2.91336 30.4826 2.68988C30.2577 2.4664 29.9451 2.41639 29.7843 2.57817C29.6235 2.73995 29.6754 3.05226 29.9003 3.27573C30.1251 3.49921 30.4377 3.54922 30.5985 3.38744Z" fill="#F6FAFD"/>
<path d="M35.0817 7.09362C35.7241 6.44729 35.5154 5.19837 34.6156 4.30408C33.7159 3.40979 32.4657 3.20878 31.8233 3.85511C31.1809 4.50144 31.3896 5.75036 32.2893 6.64465C33.1891 7.53894 34.4393 7.73995 35.0817 7.09362Z" fill="#F6FAFD"/>
<path d="M35.0156 35.9702C38.8816 35.9702 42.0156 32.8362 42.0156 28.9702C42.0156 25.1042 38.8816 21.9702 35.0156 21.9702C31.1496 21.9702 28.0156 25.1042 28.0156 28.9702C28.0156 32.8362 31.1496 35.9702 35.0156 35.9702Z" fill="url(#paint0_radial_267_15)"/>
<path d="M13.0156 36.0298C16.8816 36.0298 20.0156 32.8958 20.0156 29.0298C20.0156 25.1638 16.8816 22.0298 13.0156 22.0298C9.14963 22.0298 6.01562 25.1638 6.01562 29.0298C6.01562 32.8958 9.14963 36.0298 13.0156 36.0298Z" fill="url(#paint1_radial_267_15)"/>
<path d="M24.0433 39.0001C23.6493 39.0012 23.259 38.9246 22.8947 38.7748C22.5303 38.625 22.199 38.4049 21.9196 38.1271C21.6403 37.8493 21.4185 37.5191 21.2667 37.1556C21.115 36.792 21.0364 36.4021 21.0353 36.0081L23.0353 36.0031C23.0353 36.2009 23.094 36.3942 23.2038 36.5587C23.3137 36.7231 23.4699 36.8513 23.6526 36.927C23.8354 37.0027 24.0364 37.0225 24.2304 36.9839C24.4244 36.9453 24.6026 36.8501 24.7424 36.7102C24.8823 36.5704 24.9775 36.3922 25.0161 36.1982C25.0547 36.0042 25.0349 35.8032 24.9592 35.6204C24.8835 35.4377 24.7553 35.2815 24.5909 35.1716C24.4264 35.0618 24.2331 35.0031 24.0353 35.0031C23.7701 35.0039 23.5154 34.8993 23.3273 34.7123C23.1392 34.5254 23.0331 34.2713 23.0323 34.0061C23.0315 33.7409 23.1361 33.4862 23.3231 33.2981C23.5101 33.11 23.7641 33.0039 24.0293 33.0031C24.2271 33.0031 24.4204 32.9445 24.5849 32.8346C24.7493 32.7247 24.8775 32.5685 24.9532 32.3858C25.0289 32.2031 25.0487 32.002 25.0101 31.808C24.9715 31.614 24.8763 31.4359 24.7364 31.296C24.5966 31.1562 24.4184 31.0609 24.2244 31.0223C24.0304 30.9837 23.8294 31.0035 23.6466 31.0792C23.4639 31.1549 23.3077 31.2831 23.1978 31.4475C23.088 31.612 23.0293 31.8053 23.0293 32.0031L21.0293 32.0081C21.0278 31.5217 21.1445 31.0421 21.3695 30.6109C21.5945 30.1796 21.921 29.8095 22.3209 29.5325C22.7208 29.2555 23.182 29.0799 23.6648 29.0208C24.1477 28.9617 24.6376 29.0209 25.0925 29.1933C25.5474 29.3657 25.9535 29.6461 26.2759 30.0104C26.5983 30.3746 26.8272 30.8119 26.943 31.2843C27.0588 31.7568 27.058 32.2503 26.9407 32.7224C26.8233 33.1944 26.5929 33.6309 26.2693 33.9941C26.6567 34.4249 26.9111 34.9588 27.0017 35.531C27.0923 36.1033 27.0153 36.6896 26.7798 37.219C26.5444 37.7485 26.1607 38.1984 25.6751 38.5145C25.1895 38.8305 24.6227 38.9992 24.0433 39.0001Z" fill="#273941"/>
<path d="M15.0064 23.0198C16.6633 23.0148 18.001 21.2199 17.9944 19.0108C17.9878 16.8017 16.6393 15.0148 14.9824 15.0198C13.3256 15.0248 11.9878 16.8197 11.9944 19.0288C12.001 21.2379 13.3496 23.0248 15.0064 23.0198Z" fill="#273941"/>
<path d="M14.9968 22.0243C16.1014 22.0213 16.9931 20.6757 16.9886 19.0189C16.9841 17.362 16.085 16.0213 14.9805 16.0243C13.8759 16.0273 12.9841 17.3729 12.9886 19.0298C12.9931 20.6866 13.8922 22.0273 14.9968 22.0243Z" fill="#141E21"/>
<path d="M15.9863 19.022C16.5386 19.022 16.9863 18.5743 16.9863 18.022C16.9863 17.4697 16.5386 17.022 15.9863 17.022C15.434 17.022 14.9863 17.4697 14.9863 18.022C14.9863 18.5743 15.434 19.022 15.9863 19.022Z" fill="#F6FAFD"/>
<path d="M39.9951 20.9569H37.9951C37.9941 20.5629 37.9154 20.173 37.7637 19.8094C37.612 19.4458 37.3901 19.1157 37.1108 18.8379C36.8315 18.56 36.5002 18.3399 36.1358 18.1902C35.7714 18.0404 35.3811 17.9638 34.9871 17.9649C34.5932 17.9659 34.2033 18.0445 33.8397 18.1963C33.4761 18.348 33.146 18.5699 32.8682 18.8492C32.5903 19.1285 32.3702 19.4598 32.2204 19.8242C32.0706 20.1886 31.9941 20.5789 31.9951 20.9728L29.9951 20.9789C29.9916 19.6528 30.5149 18.3796 31.4501 17.4394C32.3852 16.4991 33.6556 15.9689 34.9816 15.9654C36.3077 15.9618 37.5809 16.4851 38.5211 17.4203C39.4613 18.3554 39.9916 19.6258 39.9951 20.9518V20.9569Z" fill="#273941"/>
<path d="M34.2451 37.639C33.8051 37.206 31.2161 30.201 35.2671 26.169C35.6025 25.7968 36.0109 25.4976 36.4669 25.2901C36.9229 25.0826 37.4168 24.9713 37.9177 24.9629C38.4186 24.9546 38.9159 25.0494 39.3786 25.2416C39.8413 25.4338 40.2595 25.7192 40.6071 26.08C41.9271 27.38 41.9071 29.142 40.9961 30.919C42.7861 30.008 44.5661 29.979 45.8861 31.278C46.2518 31.6163 46.5424 32.0276 46.7394 32.4853C46.9363 32.9429 47.035 33.4368 47.0293 33.935C47.0235 34.4332 46.9134 34.9246 46.706 35.3776C46.4986 35.8306 46.1985 36.2351 45.8251 36.565C41.7741 40.6 35.1251 38.505 34.2451 37.639Z" fill="#CF4054"/>
<path d="M45.8861 31.278C44.5661 29.978 42.7861 30.008 40.9961 30.919C41.9061 29.142 41.9271 27.379 40.6071 26.08C40.2595 25.7192 39.8413 25.4338 39.3786 25.2416C38.9159 25.0494 38.4186 24.9546 37.9177 24.9629C37.4168 24.9713 36.9229 25.0826 36.4669 25.2901C36.0109 25.4976 35.6025 25.7968 35.2671 26.169C31.2161 30.201 33.8051 37.206 34.2451 37.639C35.1251 38.505 41.7741 40.597 45.8251 36.565C46.1985 36.2351 46.4986 35.8306 46.706 35.3776C46.9134 34.9246 47.0235 34.4332 47.0293 33.935C47.035 33.4368 46.9363 32.9429 46.7394 32.4853C46.5424 32.0276 46.2518 31.6163 45.8861 31.278ZM44.1681 35.248C41.2741 38.128 36.5241 36.634 35.8961 36.015C35.5821 35.706 33.7321 30.702 36.6261 27.822C36.8657 27.5562 37.1574 27.3426 37.4831 27.1944C37.8088 27.0463 38.1616 26.9668 38.5194 26.9609C38.8771 26.955 39.2323 27.0228 39.5628 27.1601C39.8932 27.2974 40.1918 27.5012 40.4401 27.759C40.8714 28.2181 41.1339 28.8103 41.1844 29.4383C41.2349 30.0662 41.0705 30.6927 40.7181 31.215C41.246 30.8634 41.8761 30.6978 42.5086 30.7444C43.1412 30.7909 43.7402 31.0469 44.2111 31.472C44.4722 31.7136 44.6798 32.0074 44.8204 32.3342C44.961 32.661 45.0316 33.0137 45.0276 33.3695C45.0235 33.7253 44.9449 34.0763 44.7969 34.3998C44.6488 34.7234 44.4346 35.0123 44.1681 35.248Z" fill="#AE2D4C"/>
<path d="M44.8448 34.7556C45.166 34.4324 45.0618 33.8081 44.6122 33.3612C44.1625 32.9142 43.5375 32.8139 43.2163 33.137C42.8951 33.4602 42.9993 34.0845 43.449 34.5314C43.8987 34.9784 44.5236 35.0787 44.8448 34.7556Z" fill="#F6FAFD"/>
<path d="M45.1796 32.8489C45.3404 32.6871 45.2885 32.3748 45.0636 32.1513C44.8388 31.9278 44.5262 31.8778 44.3654 32.0396C44.2046 32.2014 44.2565 32.5137 44.4813 32.7372C44.7062 32.9606 45.0188 33.0106 45.1796 32.8489Z" fill="#F6FAFD"/>
<path d="M35.4 38.244C34.9832 38.1138 34.5928 37.9107 34.247 37.644C33.5553 36.2838 33.1561 34.7938 33.075 33.27C32.949 35.2043 33.2332 37.1433 33.909 38.96C33.9887 39.2038 34.1043 39.4343 34.252 39.644C35.5162 40.4112 36.9552 40.8435 38.433 40.9C39.1987 40.2802 39.9242 39.6121 40.605 38.9C38.8429 39.0608 37.067 38.8369 35.4 38.244Z" fill="#FFB32B"/>
<defs>
<radialGradient id="paint0_radial_267_15" cx="0" cy="0" r="1" gradientUnits="userSpaceOnUse" gradientTransform="translate(35.0243 28.9786) rotate(-0.156) scale(7.002 7.002)">
<stop stop-color="#FF568D"/>
<stop offset="0.454" stop-color="#FF9678"/>
<stop offset="0.817" stop-color="#FFC26A"/>
<stop offset="1" stop-color="#FFD364"/>
</radialGradient>
<radialGradient id="paint1_radial_267_15" cx="0" cy="0" r="1" gradientUnits="userSpaceOnUse" gradientTransform="translate(13.0173 29.0391) rotate(-0.156) scale(7.002 7.002)">
<stop stop-color="#FF568D"/>
<stop offset="0.454" stop-color="#FF9678"/>
<stop offset="0.817" stop-color="#FFC26A"/>
<stop offset="1" stop-color="#FFD364"/>
</radialGradient>
</defs>
</svg>
