<svg width="24" height="24" viewBox="0 0 24 24" fill="none" xmlns="http://www.w3.org/2000/svg">
<path d="M13.98 20.7172C14.148 20.9077 14.3546 21.0602 14.5861 21.1647C14.8175 21.2692 15.0686 21.3232 15.3225 21.3232C15.5765 21.3232 15.8276 21.2692 16.059 21.1647C16.2905 21.0602 16.4971 20.9077 16.665 20.7172C16.8553 20.5492 17.0078 20.3427 17.1121 20.1113C17.2165 19.8799 17.2705 19.629 17.2705 19.3752C17.2705 19.1214 17.2165 18.8704 17.1121 18.6391C17.0078 18.4077 16.8553 18.2012 16.665 18.0332L9.50705 11.4132L16.665 4.61319C16.8553 4.44522 17.0078 4.23869 17.1121 4.00732C17.2165 3.77595 17.2705 3.52502 17.2705 3.27119C17.2705 3.01736 17.2165 2.76643 17.1121 2.53506C17.0078 2.30369 16.8553 2.09716 16.665 1.92919C16.4971 1.73889 16.2905 1.58649 16.0592 1.4821C15.8278 1.37771 15.5769 1.32373 15.323 1.32373C15.0692 1.32373 14.8183 1.37771 14.5869 1.4821C14.3555 1.58649 14.149 1.73889 13.981 1.92919L5.92905 9.98019C5.73875 10.1482 5.58635 10.3547 5.48195 10.5861C5.37755 10.8174 5.32355 11.0684 5.32355 11.3222C5.32355 11.576 5.37755 11.8269 5.48195 12.0583C5.58635 12.2897 5.73875 12.4962 5.92905 12.6642L13.981 20.7162L13.98 20.7172Z" fill="#D6002F"/>
</svg>
