<svg width="24" height="24" viewBox="0 0 24 24" fill="none" xmlns="http://www.w3.org/2000/svg">
<g clip-path="url(#clip0_280_7)">
<g clip-path="url(#clip1_280_7)">
<path d="M16.6315 13.0408L15.4045 14.0258L13.6195 15.4588L12.3935 16.4428C11.9025 16.8378 11.5005 16.6508 11.5005 16.0298V14.1218C10.7575 14.0158 7.92652 13.6778 7.30252 13.5888C6.56052 13.4828 6.01252 13.0208 6.01252 12.3268V12.3238C6.01252 11.6288 6.56052 11.1668 7.30252 11.0608C7.92652 10.9718 10.7575 10.6338 11.5005 10.5278V8.61981C11.5005 7.99881 11.9015 7.81281 12.3925 8.20681L13.6195 9.18981L15.4045 10.6238L16.6315 11.6078C17.1215 12.0028 17.1215 12.6478 16.6315 13.0408Z" fill="black"/>
<path d="M5 2H19C20.6569 2 22 3.34315 22 5V19C22 20.6569 20.6569 22 19 22H5C3.34315 22 2 20.6569 2 19V5C2 3.34315 3.34315 2 5 2Z" stroke="black" stroke-width="2.5"/>
</g>
</g>
<defs>
<clipPath id="clip0_280_7">
<rect width="24" height="24" fill="white"/>
</clipPath>
<clipPath id="clip1_280_7">
<rect width="24" height="24" fill="white" transform="matrix(-1 0 0 1 24 0)"/>
</clipPath>
</defs>
</svg>
