<svg width="24" height="24" viewBox="0 0 24 24" fill="none" xmlns="http://www.w3.org/2000/svg">
<g clip-path="url(#clip0_278_2)">
<path d="M7.36848 13.0408L8.59548 14.0258L10.3805 15.4588L11.6065 16.4428C12.0975 16.8378 12.4995 16.6508 12.4995 16.0298V14.1218C13.2425 14.0158 16.0735 13.6778 16.6975 13.5888C17.4395 13.4828 17.9875 13.0208 17.9875 12.3268V12.3238C17.9875 11.6288 17.4395 11.1668 16.6975 11.0608C16.0735 10.9718 13.2425 10.6338 12.4995 10.5278V8.61981C12.4995 7.99881 12.0985 7.81281 11.6075 8.20681L10.3805 9.18981L8.59548 10.6238L7.36848 11.6078C6.87848 12.0028 6.87848 12.6478 7.36848 13.0408Z" fill="black"/>
<path d="M19 2H5C3.34315 2 2 3.34315 2 5V19C2 20.6569 3.34315 22 5 22H19C20.6569 22 22 20.6569 22 19V5C22 3.34315 20.6569 2 19 2Z" stroke="black" stroke-width="2.5"/>
</g>
<defs>
<clipPath id="clip0_278_2">
<rect width="24" height="24" fill="white"/>
</clipPath>
</defs>
</svg>
