<svg width="24" height="24" viewBox="0 0 24 24" fill="none" xmlns="http://www.w3.org/2000/svg">
<g clip-path="url(#clip0_280_14)">
<g clip-path="url(#clip1_280_14)">
<path d="M10.9592 7.36799L9.97419 8.59499L8.54119 10.38L7.55719 11.606C7.16219 12.097 7.34919 12.499 7.97019 12.499L9.87819 12.499C9.98419 13.242 10.3222 16.073 10.4112 16.697C10.5172 17.439 10.9792 17.987 11.6732 17.987L11.6762 17.987C12.3712 17.987 12.8332 17.439 12.9392 16.697C13.0282 16.073 13.3662 13.242 13.4722 12.499L15.3802 12.499C16.0012 12.499 16.1872 12.098 15.7932 11.607L14.8102 10.38L13.3762 8.59499L12.3922 7.36799C11.9972 6.87799 11.3522 6.87799 10.9592 7.36799Z" fill="black"/>
<path d="M22 19L22 5C22 3.34315 20.6569 2 19 2L5 2C3.34315 2 2 3.34315 2 5L2 19C2 20.6569 3.34315 22 5 22L19 22C20.6569 22 22 20.6569 22 19Z" stroke="black" stroke-width="2.5"/>
</g>
</g>
<defs>
<clipPath id="clip0_280_14">
<rect width="24" height="24" fill="white" transform="matrix(-4.37114e-08 -1 -1 4.37114e-08 24 24)"/>
</clipPath>
<clipPath id="clip1_280_14">
<rect width="24" height="24" fill="white" transform="translate(24) rotate(90)"/>
</clipPath>
</defs>
</svg>
