<svg width="86" height="86" viewBox="0 0 86 86" fill="none" xmlns="http://www.w3.org/2000/svg">
<path d="M46.021 65.0615C52.1582 68.1504 59.3836 70.3778 67.8589 71.3306C69.9158 71.5621 71.6662 69.9141 71.6662 67.8444V60.1309C71.6662 58.4865 70.5472 57.0531 68.9519 56.6543L59.3012 54.2417C58.08 53.9364 56.7882 54.2943 55.8981 55.1844L46.021 65.0615ZM46.021 65.0615C34.8564 59.4429 27.294 50.9726 22.3638 42.1354M22.3638 42.1354C17.6666 33.7162 15.3585 24.9638 14.601 18.0269C14.381 16.013 16.0119 14.333 18.0377 14.333H25.7286C27.4367 14.333 28.9074 15.5387 29.2424 17.2136L31.8735 30.3692C32.1084 31.544 31.7407 32.7585 30.8935 33.6057L22.3638 42.1354Z" stroke="#F3734F" stroke-width="7.16667"/>
<path d="M46.4189 25.4125C49.9446 26.0978 53.1828 27.8268 55.7134 30.3753C58.2443 32.9237 59.9507 36.1741 60.6111 39.7041M46.9306 10.9902C54.0342 11.8625 60.6462 15.073 65.7249 20.1162C70.8032 25.1594 74.0601 31.7486 74.9817 38.8462" stroke="#F3734F" stroke-width="7.16667" stroke-linecap="round" stroke-linejoin="round"/>
</svg>
