<svg width="30" height="30" viewBox="0 0 30 30" fill="none" xmlns="http://www.w3.org/2000/svg">
<path d="M4.59281 13.4189V5.05922L7.35094 7.81922C9.53531 5.63953 12.0694 4.53516 14.9541 4.53516C20.7159 4.53516 25.4044 9.23203 25.4062 15.0005C25.4053 20.768 20.7159 25.4611 14.9531 25.463C10.9444 25.463 6.16969 23.3752 4.79437 17.5148L4.76812 17.4005H7.79625L7.81687 17.4642C8.8275 20.5036 11.6962 22.5464 14.9541 22.5464C15.9454 22.5487 16.9274 22.3544 17.8431 21.9748C18.7589 21.5952 19.5904 21.0378 20.2894 20.3348C20.9921 19.6361 21.5492 18.8049 21.9285 17.8895C22.3077 16.974 22.5017 15.9924 22.4991 15.0014C22.4991 10.8408 19.1138 7.45547 14.9522 7.45547C13.0125 7.45547 11.5416 7.99922 9.39844 9.86766L12.9534 13.4198H4.59281V13.4189Z" fill="#D6002F"/>
</svg>
