<svg width="24" height="24" viewBox="0 0 24 24" fill="none" xmlns="http://www.w3.org/2000/svg">
<path d="M19.647 2.58493C19.5518 2.5392 19.4461 2.51963 19.3409 2.52824C19.2356 2.53686 19.1345 2.57333 19.048 2.63393C16.768 4.25893 13.815 3.49493 10.948 2.76393C8.412 2.11393 6.018 1.50193 4.257 2.61793C4.17955 2.66502 4.11533 2.73103 4.07038 2.80974C4.02543 2.88845 4.00121 2.97729 4 3.06793V21.3499C4 21.7089 4.306 21.9999 4.684 21.9999C5.062 21.9999 5.368 21.7089 5.368 21.3499V13.0429C6.708 12.5499 8.628 13.0429 10.652 13.5569C12.316 14.0539 14.04 14.3459 15.782 14.4239C17.2036 14.4688 18.602 14.0566 19.772 13.2479C19.8418 13.1992 19.899 13.1345 19.9386 13.0591C19.9783 12.9838 19.9993 12.9001 20 12.8149V3.06693C19.9947 2.96087 19.9585 2.85869 19.8957 2.77302C19.833 2.68735 19.7465 2.62196 19.647 2.58493Z" fill="#D6002F"/>
</svg>
