<svg width="24" height="24" viewBox="0 0 24 24" fill="none" xmlns="http://www.w3.org/2000/svg">
<path d="M10.0203 20.7172C9.85232 20.9077 9.64574 21.0602 9.41427 21.1647C9.18281 21.2692 8.93175 21.3232 8.6778 21.3232C8.42384 21.3232 8.17279 21.2692 7.94132 21.1647C7.70986 21.0602 7.50327 20.9077 7.3353 20.7172C7.145 20.5492 6.99259 20.3427 6.88821 20.1113C6.78382 19.8799 6.72984 19.629 6.72984 19.3752C6.72984 19.1214 6.78382 18.8704 6.88821 18.6391C6.99259 18.4077 7.145 18.2012 7.3353 18.0332L14.4933 11.4132L7.3353 4.61319C7.145 4.44522 6.99259 4.23869 6.88821 4.00732C6.78382 3.77595 6.72984 3.52502 6.72984 3.27119C6.72984 3.01736 6.78382 2.76643 6.88821 2.53506C6.99259 2.30369 7.145 2.09716 7.3353 1.92919C7.50327 1.73889 7.7098 1.58649 7.94117 1.4821C8.17254 1.37771 8.42347 1.32373 8.6773 1.32373C8.93113 1.32373 9.18206 1.37771 9.41343 1.4821C9.6448 1.58649 9.85133 1.73889 10.0193 1.92919L18.0713 9.98019C18.2616 10.1482 18.414 10.3547 18.5184 10.5861C18.6228 10.8174 18.6768 11.0684 18.6768 11.3222C18.6768 11.576 18.6228 11.8269 18.5184 12.0583C18.414 12.2897 18.2616 12.4962 18.0713 12.6642L10.0193 20.7162L10.0203 20.7172Z" fill="black"/>
</svg>
