<svg width="30" height="30" viewBox="0 0 30 30" fill="none" xmlns="http://www.w3.org/2000/svg">
<path d="M4.062 2.96994L26.6384 13.7673C27.3057 14.0865 27.5879 14.8861 27.2688 15.5534C27.1368 15.8293 26.9143 16.0518 26.6384 16.1838L4.062 26.9812C3.39472 27.3003 2.59507 27.0181 2.27594 26.3508C2.13726 26.0608 2.10749 25.7307 2.19206 25.4206L4.45015 17.1407C4.50672 16.9332 4.68183 16.7797 4.89488 16.7508L15.8348 15.2647C15.9291 15.2513 16.0072 15.1893 16.0433 15.1047L16.0621 15.0375C16.08 14.9119 16.0078 14.7943 15.8946 14.7501L15.8348 14.7344L4.90768 13.2484C4.69466 13.2195 4.51959 13.066 4.46303 12.8585L2.19206 4.53054C1.99744 3.81694 2.41816 3.08068 3.13176 2.88606C3.44186 2.80149 3.77203 2.83126 4.062 2.96994Z" fill="white"/>
</svg>
