<svg width="30" height="30" viewBox="0 0 30 30" fill="none" xmlns="http://www.w3.org/2000/svg">
<path fill-rule="evenodd" clip-rule="evenodd" d="M17.4797 3.17701C17.5889 3.38866 17.616 3.65971 17.6701 4.2018C17.7727 5.22787 17.8241 5.74092 18.0389 6.02241C18.3112 6.37947 18.7542 6.56297 19.1994 6.5031C19.5502 6.4559 19.9492 6.1294 20.7474 5.47641C21.169 5.13144 21.3797 4.95895 21.6066 4.88647C21.8947 4.79444 22.2065 4.80997 22.484 4.93024C22.7025 5.02492 22.8951 5.21752 23.2804 5.60275L24.3972 6.71959C24.7824 7.10481 24.975 7.29742 25.0697 7.51594C25.19 7.79347 25.2055 8.10519 25.1135 8.3933C25.041 8.62015 24.8685 8.83097 24.5235 9.25262C23.8705 10.0507 23.544 10.4498 23.4969 10.8007C23.437 11.2458 23.6205 11.6888 23.9775 11.9612C24.259 12.1759 24.772 12.2272 25.7981 12.3298C26.3402 12.384 26.6114 12.4111 26.823 12.5202C27.0917 12.659 27.3012 12.8904 27.4124 13.1716C27.5 13.3931 27.5 13.6655 27.5 14.2102V15.7899C27.5 16.3345 27.5 16.6069 27.4125 16.8282C27.3012 17.1096 27.0917 17.3411 26.8229 17.4797C26.6112 17.5889 26.3402 17.616 25.7982 17.6701C24.7725 17.7727 24.2596 17.824 23.9781 18.0386C23.6209 18.3111 23.4374 18.7542 23.4974 19.1995C23.5446 19.5502 23.871 19.9491 24.5237 20.747C24.8686 21.1685 25.041 21.3792 25.1135 21.606C25.2056 21.8942 25.19 22.206 25.0697 22.4836C24.975 22.7021 24.7825 22.8946 24.3974 23.2797L23.2804 24.3967C22.8952 24.7819 22.7026 24.9745 22.4841 25.0692C22.2065 25.1895 21.8949 25.205 21.6067 25.113C21.3799 25.0405 21.169 24.868 20.7474 24.523C19.9492 23.87 19.5502 23.5435 19.1994 23.4964C18.7542 23.4365 18.3112 23.62 18.0389 23.977C17.8241 24.2585 17.7729 24.7716 17.6702 25.7979C17.616 26.3402 17.5889 26.6114 17.4796 26.8231C17.341 27.0919 17.1096 27.3011 16.8285 27.4124C16.607 27.5 16.3345 27.5 15.7895 27.5H14.2102C13.6655 27.5 13.3931 27.5 13.1716 27.4124C12.8904 27.3012 12.659 27.0917 12.5202 26.823C12.4111 26.6114 12.384 26.3402 12.3298 25.7981C12.2272 24.772 12.1759 24.259 11.9611 23.9775C11.6888 23.6205 11.2458 23.437 10.8007 23.4969C10.4498 23.544 10.0507 23.8705 9.2526 24.5236C8.83094 24.8686 8.62009 25.0411 8.39322 25.1135C8.10512 25.2056 7.79342 25.19 7.5159 25.0697C7.29737 24.9751 7.10475 24.7825 6.71951 24.3972L5.60271 23.2804C5.21747 22.8952 5.02485 22.7026 4.93017 22.4841C4.80992 22.2065 4.79437 21.8949 4.88641 21.6067C4.95889 21.3799 5.13139 21.169 5.47637 20.7474C6.12939 19.9492 6.45589 19.5502 6.50309 19.1992C6.56296 18.7542 6.37946 18.3112 6.0224 18.0389C5.74091 17.8241 5.22787 17.7727 4.20179 17.6701C3.6597 17.616 3.38866 17.5889 3.17701 17.4797C2.9082 17.341 2.69877 17.1096 2.58756 16.8284C2.5 16.6069 2.5 16.3345 2.5 15.7897V14.2104C2.5 13.6655 2.5 13.393 2.5876 13.1715C2.69881 12.8904 2.90818 12.659 3.1769 12.5204C3.3886 12.4111 3.65971 12.384 4.20194 12.3298C5.22829 12.2272 5.74149 12.1758 6.02302 11.961C6.37994 11.6886 6.56337 11.2458 6.50359 10.8008C6.45642 10.4498 6.12981 10.0506 5.4766 9.25227C5.13145 8.83044 4.95889 8.61951 4.88642 8.39256C4.79446 8.10455 4.81 7.79297 4.93016 7.51554C5.02485 7.29692 5.21754 7.10424 5.60291 6.71886L6.71956 5.60221C7.1048 5.21696 7.29744 5.02434 7.51596 4.92966C7.79347 4.80941 8.10517 4.79387 8.39329 4.8859C8.62015 4.95837 8.83101 5.1309 9.25275 5.47595C10.0508 6.12887 10.4498 6.45534 10.8005 6.50259C11.2458 6.56254 11.6889 6.37899 11.9613 6.02177C12.176 5.74034 12.2273 5.22744 12.3298 4.20164C12.384 3.6597 12.4111 3.38872 12.5202 3.17712C12.6589 2.90822 12.8904 2.69872 13.1717 2.58751C13.3931 2.5 13.6655 2.5 14.2101 2.5H15.7897C16.3345 2.5 16.6069 2.5 16.8284 2.58756C17.1096 2.69877 17.341 2.9082 17.4797 3.17701ZM15 20C17.7614 20 20 17.7614 20 15C20 12.2386 17.7614 10 15 10C12.2386 10 10 12.2386 10 15C10 17.7614 12.2386 20 15 20Z" fill="black"/>
</svg>
