<svg width="44" height="44" viewBox="0 0 44 44" fill="none" xmlns="http://www.w3.org/2000/svg">
<path d="M21.9998 31.7681L12.0943 37.7925C11.8626 37.9335 11.5945 38.0029 11.3235 37.992C11.0525 37.981 10.7908 37.8901 10.5714 37.7308C10.3519 37.5715 10.1844 37.3509 10.0901 37.0966C9.99568 36.8424 9.97859 36.5659 10.0409 36.302L12.7103 25.0178L3.9176 17.459C3.71207 17.2821 3.56342 17.0484 3.49034 16.7873C3.41726 16.5262 3.42301 16.2493 3.50687 15.9914C3.59073 15.7336 3.74896 15.5063 3.96166 15.3381C4.17435 15.1699 4.43203 15.0684 4.70227 15.0463L16.2578 14.0985L20.7311 3.40095C20.8357 3.15072 21.0119 2.937 21.2377 2.78668C21.4634 2.63636 21.7286 2.55615 21.9998 2.55615C22.271 2.55615 22.5361 2.63636 22.7619 2.78668C22.9876 2.937 23.1639 3.15072 23.2684 3.40095L27.7418 14.0985L39.2973 15.0463C39.5674 15.0687 39.8248 15.1705 40.0372 15.3388C40.2497 15.5071 40.4076 15.7344 40.4913 15.9922C40.5749 16.25 40.5805 16.5268 40.5074 16.7877C40.4342 17.0487 40.2856 17.2822 40.0801 17.459L31.2893 25.0178L33.9586 36.302C34.021 36.5659 34.0039 36.8424 33.9095 37.0966C33.8151 37.3509 33.6476 37.5715 33.4282 37.7308C33.2087 37.8901 32.947 37.981 32.676 37.992C32.4051 38.0029 32.1369 37.9335 31.9053 37.7925L21.9998 31.7681Z" fill="#DAA520"/>
</svg>
