<svg width="32" height="24" viewBox="0 0 32 24" fill="none" xmlns="http://www.w3.org/2000/svg">
<path d="M25.3972 13.98H11.1202V15.417C11.1202 15.992 10.7452 16.184 10.1812 15.801L9.24123 14.842L7.36323 13.596L6.42323 12.638C5.86023 12.255 5.86023 11.68 6.42323 11.296L7.36323 10.338L9.24223 8.996L10.1812 8.038C10.7452 7.654 11.1212 7.75 11.1212 8.421V9.954H25.3982V4.204C25.3982 3.054 26.3382 2 27.6532 2C29.0602 2 30.0002 2.958 30.0002 4.3V11.871C30.0002 13.117 29.0602 14.171 27.7462 14.171H25.5862L25.3972 13.98Z" fill="black"/>
<path fill-rule="evenodd" clip-rule="evenodd" d="M2.21 5.243C2.21 3.405 3.475 2 5.159 2H18.843C20.526 2 22 3.405 22 5.243V18.757C22 20.487 20.526 22 18.842 22H5.158C3.474 22 2 20.486 2 18.757V5.243H2.21Z" stroke="black" stroke-width="2.5"/>
</svg>
