<svg width="40" height="40" viewBox="0 0 40 40" fill="none" xmlns="http://www.w3.org/2000/svg">
<path d="M36.0001 16.3999C35.7193 15.9585 35.4848 15.4894 35.3001 14.9999C35.1391 14.497 35.0384 13.9767 35.0001 13.4499C34.9782 12.1753 34.6094 10.9308 33.9335 9.84993C33.1068 8.86985 32.0296 8.13253 30.8168 7.7166C30.3218 7.52558 29.8473 7.28549 29.4001 6.99993C29.0122 6.66606 28.6552 6.2979 28.3335 5.89993C27.5678 4.86037 26.5295 4.05283 25.3335 3.5666C24.1224 3.28044 22.8572 3.3207 21.6668 3.68327C20.6035 3.93315 19.4968 3.93315 18.4335 3.68327C17.2223 3.30861 15.9323 3.2683 14.7001 3.5666C13.4919 4.04752 12.4415 4.8555 11.6668 5.89993C11.3345 6.29939 10.9663 6.66759 10.5668 6.99993C10.1197 7.28549 9.64508 7.52558 9.15013 7.7166C7.93127 8.12985 6.84804 8.86737 6.0168 9.84993C5.35838 10.9358 5.007 12.18 5.00013 13.4499C4.96188 13.9767 4.86117 14.497 4.70013 14.9999C4.51343 15.4779 4.2789 15.9358 4.00013 16.3666C3.24868 17.4378 2.80486 18.6944 2.7168 19.9999C2.81082 21.294 3.25437 22.5382 4.00013 23.5999C4.28532 24.027 4.52021 24.4856 4.70013 24.9666C4.84514 25.4828 4.92905 26.0142 4.95013 26.5499C4.97037 27.8248 5.33926 29.0698 6.0168 30.1499C6.84346 31.13 7.92064 31.8673 9.13346 32.2833C9.62842 32.4743 10.103 32.7144 10.5501 32.9999C10.9496 33.3323 11.3178 33.7005 11.6501 34.0999C12.4107 35.1445 13.4505 35.9532 14.6501 36.4333C15.1202 36.5763 15.6088 36.6493 16.1001 36.6499C16.8528 36.626 17.6011 36.5254 18.3335 36.3499C19.3949 36.0846 20.5053 36.0846 21.5668 36.3499C22.7809 36.7103 24.0685 36.7448 25.3001 36.4499C26.4997 35.9699 27.5396 35.1611 28.3001 34.1166C28.6325 33.7171 29.0007 33.3489 29.4001 33.0166C29.8473 32.731 30.3218 32.491 30.8168 32.2999C32.0296 31.884 33.1068 31.1467 33.9335 30.1666C34.611 29.0865 34.9799 27.8415 35.0001 26.5666C35.0212 26.0309 35.1051 25.4994 35.2501 24.9833C35.4368 24.5053 35.6714 24.0474 35.9501 23.6166C36.7165 22.5554 37.1777 21.3046 37.2835 19.9999C37.1894 18.7059 36.7459 17.4616 36.0001 16.3999ZM27.8501 17.8499L19.5168 26.1833C19.3619 26.3395 19.1775 26.4635 18.9744 26.5481C18.7713 26.6327 18.5535 26.6763 18.3335 26.6763C18.1134 26.6763 17.8956 26.6327 17.6925 26.5481C17.4894 26.4635 17.3051 26.3395 17.1501 26.1833L12.1501 21.1833C11.9947 21.0279 11.8715 20.8434 11.7874 20.6403C11.7033 20.4373 11.66 20.2197 11.66 19.9999C11.66 19.5561 11.8363 19.1304 12.1501 18.8166C12.464 18.5028 12.8896 18.3264 13.3335 18.3264C13.7773 18.3264 14.203 18.5028 14.5168 18.8166L18.3335 22.6499L25.4835 15.4833C25.7973 15.1694 26.223 14.9931 26.6668 14.9931C27.1106 14.9931 27.5363 15.1694 27.8501 15.4833C28.164 15.7971 28.3403 16.2228 28.3403 16.6666C28.3403 17.1104 28.164 17.5361 27.8501 17.8499Z" fill="#298CFA"/>
</svg>
