<svg width="803" height="591" viewBox="0 0 803 591" fill="none" xmlns="http://www.w3.org/2000/svg">
<g clip-path="url(#clip0_261_263)">
<path d="M325.403 383.322L175.797 483.389L28.4531 263.098L178.061 163.033L325.403 383.322Z" fill="#F3F2F1"/>
<path d="M248.114 372.877L246.417 383.385L172.045 372.671L173.744 362.164L248.114 372.877Z" fill="#DADBD8"/>
<path d="M210.66 335.393L221.332 336.932L209.5 410.155L198.828 408.617L210.66 335.393Z" fill="#DADBD8"/>
<path d="M142.157 242.325C142.264 242.485 127.271 252.7 108.675 265.139C90.0716 277.581 74.909 287.536 74.8033 287.376C74.6966 287.217 89.6861 277.004 108.289 264.561C126.885 252.123 142.052 242.167 142.157 242.325Z" fill="#DADBD8"/>
<path d="M197.176 228.515C197.282 228.675 172.35 245.537 141.497 266.173C110.632 286.819 85.5329 303.419 85.4261 303.259C85.3193 303.1 110.246 286.24 141.11 265.597C171.965 244.96 197.069 228.355 197.176 228.515Z" fill="#DADBD8"/>
<path d="M208.204 245.003C208.312 245.163 183.38 262.025 152.526 282.661C121.661 303.307 96.5617 319.907 96.4554 319.748C96.3486 319.588 121.275 302.729 152.14 282.085C182.994 261.448 208.098 244.844 208.204 245.003Z" fill="#DADBD8"/>
<path d="M219.234 261.491C219.34 261.651 194.408 278.514 163.555 299.151C132.689 319.795 107.591 336.395 107.484 336.236C107.377 336.078 132.303 319.217 163.168 298.574C194.022 277.936 219.127 261.332 219.234 261.491Z" fill="#DADBD8"/>
<path d="M230.261 277.98C230.368 278.14 205.436 295.003 174.583 315.639C143.717 336.283 118.619 352.884 118.512 352.724C118.405 352.565 143.332 335.707 174.196 315.063C205.051 294.425 230.155 277.821 230.261 277.98Z" fill="#DADBD8"/>
<path d="M802.064 495.677L676.419 579.715L552.678 394.709L678.322 310.671L802.064 495.677Z" fill="#F3F2F1"/>
<path d="M737.154 486.904L735.728 495.729L673.27 486.731L674.696 477.907L737.154 486.904Z" fill="#DADBD8"/>
<path d="M705.7 455.425L714.662 456.714L704.724 518.21L695.762 516.92L705.7 455.425Z" fill="#DADBD8"/>
<path d="M648.168 377.264C648.275 377.423 635.699 386.021 620.08 396.468C604.456 406.919 591.708 415.257 591.601 415.097C591.495 414.937 604.071 406.34 619.695 395.891C635.311 385.444 648.061 377.103 648.168 377.264Z" fill="#DADBD8"/>
<path d="M694.373 365.664C694.48 365.823 673.556 380.005 647.644 397.337C621.722 414.675 600.631 428.597 600.524 428.436C600.417 428.277 621.337 414.099 647.257 396.761C673.171 379.429 694.266 365.504 694.373 365.664Z" fill="#DADBD8"/>
<path d="M703.638 379.512C703.744 379.67 682.818 393.853 656.907 411.185C630.986 428.522 609.892 442.442 609.786 442.284C609.68 442.125 630.599 427.945 656.522 410.608C682.432 393.276 703.531 379.352 703.638 379.512Z" fill="#DADBD8"/>
<path d="M712.899 393.36C713.006 393.519 692.082 407.701 666.168 425.033C640.248 442.371 619.155 456.291 619.048 456.132C618.942 455.973 639.862 441.793 665.783 424.456C691.695 407.124 712.792 393.2 712.899 393.36Z" fill="#DADBD8"/>
<path d="M722.16 407.207C722.267 407.367 701.343 421.548 675.431 438.88C649.51 456.217 628.418 470.139 628.311 469.98C628.203 469.82 649.123 455.641 675.044 438.303C700.956 420.972 722.054 407.047 722.16 407.207Z" fill="#DADBD8"/>
<path d="M371.587 372.969L234.496 299.651L342.455 97.7879L479.547 171.107L371.587 372.969Z" fill="#F3F2F1"/>
<path d="M348.118 309.823L339.42 312.801L317.344 251.769L326.041 248.791L348.118 309.823Z" fill="#DADBD8"/>
<path d="M361.454 266.039L364.622 274.796L304.01 295.555L300.842 286.796L361.454 266.039Z" fill="#DADBD8"/>
<path d="M404.521 175.989C404.415 176.19 390.509 168.962 373.468 159.849C356.421 150.733 342.695 143.182 342.801 142.981C342.908 142.78 356.811 150.006 373.857 159.122C390.897 168.237 404.629 175.789 404.521 175.989Z" fill="#DADBD8"/>
<path d="M437.418 212.3C437.31 212.501 414.298 200.404 386.026 185.282C357.742 170.156 334.91 157.736 335.017 157.536C335.124 157.334 358.132 169.43 386.414 184.556C414.688 199.677 437.525 212.1 437.418 212.3Z" fill="#DADBD8"/>
<path d="M429.337 227.409C429.23 227.61 406.218 215.513 377.945 200.392C349.662 185.266 326.829 172.845 326.937 172.644C327.044 172.444 350.052 184.538 378.334 199.665C406.606 214.786 429.445 227.209 429.337 227.409Z" fill="#DADBD8"/>
<path d="M421.256 242.519C421.149 242.72 398.139 230.623 369.865 215.501C341.583 200.375 318.749 187.955 318.856 187.753C318.964 187.553 341.971 199.648 370.253 214.775C398.526 229.895 421.365 242.319 421.256 242.519Z" fill="#DADBD8"/>
<path d="M413.176 257.628C413.069 257.829 390.057 245.731 361.784 230.611C333.501 215.484 310.668 203.064 310.776 202.863C310.882 202.661 333.89 214.757 362.173 229.883C390.445 245.004 413.284 257.428 413.176 257.628Z" fill="#DADBD8"/>
<path d="M410.45 58.6426H413.894V-0.00165666H410.45V58.6426Z" fill="#C3C5C2"/>
<path d="M331.865 129.584H492.48C492.48 129.584 477.651 58.6053 410.956 58.6053C351.633 58.6053 331.865 129.584 331.865 129.584Z" fill="#F03D5F"/>
<path d="M413.894 -0.00139624H410.45V58.6426H413.894V-0.00139624Z" fill="#F03D5F"/>
<path d="M769.777 586.436C769.777 586.628 597.443 586.784 384.907 586.784C172.297 586.784 0 586.628 0 586.436C0 586.245 172.297 586.089 384.907 586.089C597.443 586.089 769.777 586.245 769.777 586.436Z" fill="#17282F"/>
<path d="M42.6028 502.934C47.1112 503.092 51.3424 505.54 54.3164 508.932C57.2899 512.324 59.1128 516.59 60.2784 520.946C62.5347 529.378 61.1482 539.328 58.7435 547.717C49.6159 544.456 43.9867 534.721 41.4419 529.604C37.4191 521.516 35.0602 504.454 42.6028 502.934Z" fill="#F03D5F"/>
<path d="M71.878 557.936C68.9977 553.802 68.9301 548.052 71.2072 543.556C73.4837 539.06 77.8572 535.818 82.6744 534.339C84.9014 533.656 87.4864 533.368 89.4238 534.661C91.2348 535.872 92.0176 538.245 91.7837 540.412C91.5509 542.577 90.4525 544.558 89.1588 546.31C84.7206 552.32 79.3228 557.321 71.878 557.936Z" fill="#F03D5F"/>
<path d="M72.8824 586.111C72.8382 586.118 72.7002 585.492 72.4742 584.36C72.2304 583.109 71.9142 581.494 71.5356 579.553C70.8152 575.513 69.672 569.768 70.5366 563.416C71.3674 557.094 73.8851 551.687 76.5236 548.459C77.8231 546.825 79.0658 545.669 79.9862 544.959C80.4314 544.585 80.8242 544.355 81.0726 544.178C81.3278 544.011 81.4679 543.932 81.4804 543.949C81.5799 544.061 79.3466 545.437 76.8788 548.731C74.3788 551.969 71.9819 557.283 71.1638 563.5C70.3127 569.723 71.3663 575.416 71.9756 579.478C72.3023 581.518 72.5658 583.171 72.7174 584.32C72.869 585.467 72.9242 586.104 72.8824 586.111Z" fill="#17282F"/>
<path d="M45.5466 515.768C45.5669 515.758 45.6923 515.996 45.9142 516.458C46.1575 516.984 46.4694 517.656 46.8543 518.489C47.6611 520.26 48.7955 522.834 50.1694 526.028C52.9194 532.413 56.5955 541.288 60.4325 551.178C64.2679 561.075 67.5377 570.108 69.8117 576.677C70.9497 579.963 71.8481 582.628 72.445 584.478C72.7221 585.354 72.9461 586.061 73.1199 586.613C73.2679 587.103 73.3357 587.365 73.3147 587.372C73.295 587.378 73.1866 587.132 72.9997 586.656C72.7966 586.113 72.5357 585.418 72.2127 584.558C71.5194 582.658 70.5617 580.037 69.3903 576.828C67.0095 570.299 63.6757 561.296 59.8429 551.408C56.0085 541.524 52.4007 532.628 49.7575 526.201C48.4585 523.041 47.3975 520.458 46.6289 518.588C46.2877 517.734 46.0122 517.045 45.797 516.509C45.6137 516.032 45.5273 515.775 45.5466 515.768Z" fill="#17282F"/>
<path d="M62.0471 567.471C56.6638 558.312 46.6138 552.066 36.0181 551.299C33.3195 551.101 30.0743 551.556 28.8711 553.98C27.6654 556.407 29.2774 559.278 31.1159 561.27C38.7643 569.555 51.7019 572.443 62.1471 568.197" fill="#F03D5F"/>
<path d="M40.127 558.521C40.1302 558.478 40.7302 558.502 41.8166 558.584C42.3598 558.621 43.0259 558.669 43.7879 558.813C44.5473 558.953 45.4322 559.037 46.3734 559.299C47.3207 559.532 48.3671 559.764 49.4494 560.153C50.553 560.48 51.6863 560.952 52.877 561.456C55.2291 562.523 57.725 563.922 60.1005 565.739C62.4587 567.577 64.4515 569.632 66.0707 571.646C66.8505 572.68 67.5937 573.657 68.1739 574.653C68.815 575.609 69.2911 576.569 69.7385 577.437C70.2177 578.289 70.4999 579.133 70.8125 579.84C71.1291 580.548 71.3254 581.187 71.4833 581.708C71.8067 582.749 71.9645 583.327 71.9229 583.34C71.7879 583.387 71.1395 581.056 69.3411 577.642C68.8739 576.799 68.3827 575.865 67.7322 574.934C67.1426 573.968 66.3937 573.017 65.6161 572.01C63.9978 570.049 62.0306 568.045 59.7139 566.24C57.3806 564.456 54.939 563.068 52.6374 561.988C51.4718 561.477 50.363 560.992 49.2817 560.651C48.2229 560.244 47.1969 559.99 46.2677 559.733C42.5254 558.787 40.113 558.658 40.127 558.521Z" fill="#17282F"/>
<path d="M645.37 140.632C641.45 141.535 639.54 146.046 639.17 150.051C638.799 154.058 639.31 158.288 637.627 161.943C635.732 166.056 631.21 169.088 631.059 173.614C630.968 176.374 632.606 178.968 632.528 181.727C632.399 186.26 627.776 189.684 627.534 194.212C627.36 197.472 629.532 200.6 629.01 203.823C628.602 206.332 626.65 208.308 625.824 210.711C624.179 215.501 627.47 220.775 631.756 223.472C636.534 226.476 642.651 227.252 648.027 225.535C653.403 223.817 657.936 219.638 660.087 214.42C662.459 208.662 661.94 202.177 661.424 195.971C659.818 176.631 658.624 157.256 657.844 137.864" fill="#17282F"/>
<path d="M633.988 208.884C633.904 208.806 635.06 208.464 635.778 206.753C636.128 205.916 636.306 204.792 636.236 203.498C636.19 202.196 635.746 200.778 635.262 199.181C634.816 197.596 634.234 195.758 634.568 193.713C634.904 191.637 636.389 189.933 637.745 188.257C638.426 187.408 639.113 186.526 639.545 185.521C640 184.528 640.096 183.39 639.754 182.324C639.065 180.145 636.93 178.544 635.95 176.028C635.465 174.768 635.46 173.384 635.737 172.137C636 170.878 636.51 169.737 637.024 168.648C638.068 166.477 639.217 164.486 639.673 162.374C640.608 158.145 640.172 154.108 640.809 150.792C641.385 147.469 642.789 144.97 644.18 143.686C644.857 143.022 645.513 142.669 645.941 142.432C646.397 142.236 646.638 142.145 646.646 142.166C646.692 142.241 645.658 142.558 644.37 143.877C643.085 145.177 641.796 147.621 641.292 150.873C641.028 152.49 640.988 154.309 640.921 156.261C640.853 158.212 640.792 160.33 640.296 162.52C639.832 164.738 638.65 166.808 637.638 168.94C636.636 171.034 635.714 173.49 636.601 175.786C637.448 178.056 639.596 179.668 640.402 182.12C640.797 183.34 640.668 184.692 640.153 185.785C639.664 186.897 638.937 187.806 638.242 188.66C636.848 190.345 635.453 191.949 635.134 193.814C634.801 195.67 635.314 197.461 635.736 199.045C636.182 200.632 636.613 202.125 636.624 203.481C636.658 204.825 636.433 205.996 636.028 206.861C635.625 207.732 635.074 208.269 634.661 208.544C634.25 208.825 633.988 208.884 633.988 208.884Z" fill="#33535F"/>
<path d="M623.49 240.487L611.455 275.182L561.263 277.873L552.894 296.497L605.295 301.798C615.744 306.118 627.682 300.824 631.495 290.18L645.479 251.146L623.49 240.487Z" fill="#C0776A"/>
<path d="M727.308 567.596C727.308 567.596 690.525 450.771 689.745 446.979C689.038 443.551 703.093 359.481 704.864 337.723L655.164 339.576C655.164 339.576 655.162 339.708 655.16 339.937L634.034 341.109L652.956 580.035H675.826L673.558 500.766C687.661 538.628 707.87 577.212 707.87 577.212L727.308 567.596Z" fill="#C0776A"/>
<path d="M674.492 529.176C674.512 528.451 674.215 502.617 674.215 502.617C673.929 504.163 665.447 480.187 665.652 478.729C665.757 477.975 674.492 529.176 674.492 529.176Z" fill="#AC584F"/>
<path d="M664.685 467.377C664.632 467.377 664.583 467.892 664.537 468.825C664.488 469.76 664.477 471.115 664.568 472.787C664.6 473.625 664.688 474.539 664.796 475.519C664.921 476.496 665.055 477.544 665.281 478.631C665.696 480.812 666.336 483.171 667.151 485.592C668.811 490.424 670.644 494.652 671.945 497.719C672.561 499.118 673.091 500.321 673.536 501.331C673.927 502.177 674.167 502.637 674.215 502.618C674.264 502.599 674.117 502.101 673.811 501.22C673.505 500.339 673.037 499.073 672.443 497.518C671.268 494.399 669.516 490.139 667.871 485.349C667.064 482.951 666.413 480.633 665.968 478.492C665.725 477.427 665.571 476.397 665.421 475.436C665.287 474.473 665.169 473.575 665.104 472.748C664.947 471.099 664.875 469.755 664.833 468.824C664.788 467.895 664.737 467.378 664.685 467.377Z" fill="#AC584F"/>
<path d="M652.527 581.212L652.518 579.064L675.943 578.044L676.008 586.904L674.563 587C668.132 587.377 641.84 588.461 637.536 587.172C632.738 585.732 652.527 581.212 652.527 581.212Z" fill="#33535F"/>
<path d="M676.335 586.368C676.335 586.377 676.198 586.392 675.934 586.412C675.588 586.433 675.21 586.458 674.783 586.487C673.632 586.54 672.218 586.605 670.548 586.684C666.971 586.824 662.026 586.954 656.563 586.98C651.098 587.002 646.151 586.916 642.574 586.806C640.903 586.742 639.487 586.689 638.336 586.645C637.91 586.621 637.531 586.6 637.186 586.581C636.922 586.564 636.784 586.549 636.784 586.541C636.784 586.53 636.923 586.525 637.187 586.525C637.534 586.528 637.912 586.532 638.339 586.536C639.491 586.554 640.907 586.578 642.578 586.605C646.155 586.665 651.099 586.72 656.562 586.697C662.022 586.672 666.964 586.575 670.542 586.484C672.212 586.441 673.628 586.405 674.779 586.376C675.206 586.368 675.586 586.361 675.931 586.354C676.196 586.353 676.333 586.357 676.335 586.368Z" fill="#17282F"/>
<path d="M644.937 587.121C644.851 587.133 644.781 586.121 644.139 585.103C643.513 584.072 642.641 583.558 642.689 583.487C642.704 583.416 643.705 583.852 644.379 584.954C645.064 586.048 645.007 587.139 644.937 587.121Z" fill="#17282F"/>
<path d="M651.802 583.608C651.736 583.651 651.406 583.251 651.064 582.716C650.722 582.183 650.498 581.715 650.564 581.672C650.63 581.631 650.96 582.031 651.302 582.564C651.644 583.1 651.867 583.565 651.802 583.608Z" fill="#17282F"/>
<path d="M653.686 582.603C653.634 582.661 653.264 582.417 652.863 582.057C652.459 581.699 652.175 581.36 652.227 581.302C652.278 581.244 652.647 581.488 653.049 581.846C653.452 582.206 653.738 582.544 653.686 582.603Z" fill="#17282F"/>
<path d="M654.869 580.399C654.871 580.477 654.327 580.548 653.655 580.559C652.981 580.568 652.436 580.513 652.435 580.435C652.433 580.357 652.977 580.287 653.651 580.276C654.323 580.266 654.868 580.321 654.869 580.399Z" fill="#17282F"/>
<path d="M655.273 578.847C655.301 578.916 654.708 579.185 653.918 579.247C653.129 579.311 652.501 579.137 652.517 579.064C652.529 578.984 653.145 579.027 653.896 578.964C654.645 578.908 655.249 578.768 655.273 578.847Z" fill="#17282F"/>
<path d="M651.004 581.578C651.006 581.609 650.431 581.681 649.506 581.573C649.044 581.52 648.498 581.413 647.911 581.228C647.618 581.125 647.312 581.048 646.996 580.856C646.848 580.757 646.683 580.618 646.624 580.39C646.562 580.166 646.68 579.915 646.848 579.792C648.278 579.044 649.714 579.845 650.248 580.582C650.542 580.96 650.678 581.327 650.74 581.581C650.802 581.835 650.798 581.982 650.78 581.985C650.728 582.004 650.678 581.396 650.094 580.71C649.807 580.375 649.37 580.046 648.811 579.882C648.282 579.728 647.53 579.689 647.027 580.01C646.79 580.188 646.883 580.468 647.148 580.623C647.395 580.782 647.714 580.877 647.991 580.981C648.559 581.173 649.088 581.298 649.535 581.377C650.432 581.532 651.004 581.532 651.004 581.578Z" fill="#17282F"/>
<path d="M650.616 581.653C650.594 581.669 650.372 581.288 650.438 580.613C650.474 580.283 650.593 579.89 650.844 579.518C651.106 579.185 651.445 578.725 652.088 578.751C652.434 578.793 652.606 579.188 652.552 579.44C652.526 579.704 652.409 579.929 652.301 580.109C652.079 580.485 651.828 580.789 651.596 581.018C651.128 581.48 650.757 581.656 650.741 581.628C650.714 581.592 651.038 581.359 651.45 580.883C651.654 580.645 651.876 580.344 652.074 579.983C652.278 579.664 652.417 579.096 652.039 579.029C651.666 578.993 651.285 579.369 651.057 579.668C650.822 579.993 650.693 580.342 650.637 580.644C650.525 581.254 650.665 581.642 650.616 581.653Z" fill="#17282F"/>
<path d="M675.835 579.99C675.831 580.044 675.168 579.931 674.115 580.059C673.072 580.178 671.621 580.612 670.364 581.62C669.105 582.632 668.369 583.953 668.028 584.947C667.676 585.947 667.644 586.619 667.591 586.612C667.573 586.611 667.565 586.442 667.588 586.142C667.612 585.84 667.683 585.406 667.837 584.884C668.14 583.849 668.875 582.454 670.187 581.4C671.499 580.348 673.019 579.932 674.095 579.86C674.637 579.821 675.077 579.845 675.376 579.888C675.676 579.931 675.839 579.975 675.835 579.99Z" fill="#17282F"/>
<path d="M664.616 584.511C664.627 584.584 663.106 584.827 661.212 584.833C659.318 584.846 657.796 584.62 657.806 584.546C657.812 584.465 659.335 584.564 661.211 584.552C663.088 584.544 664.607 584.429 664.616 584.511Z" fill="#17282F"/>
<path d="M669.182 584.461C669.24 584.517 669.058 584.784 668.905 585.133C668.746 585.482 668.666 585.793 668.588 585.788C668.512 585.788 668.465 585.421 668.646 585.018C668.826 584.615 669.133 584.404 669.182 584.461Z" fill="#17282F"/>
<path d="M670.898 582.312C670.952 582.368 670.803 582.609 670.563 582.855C670.322 583.1 670.083 583.256 670.027 583.201C669.972 583.147 670.12 582.903 670.362 582.657C670.6 582.412 670.842 582.259 670.898 582.312Z" fill="#17282F"/>
<path d="M673.356 581.324C673.34 581.404 673.03 581.401 672.689 581.524C672.344 581.637 672.1 581.828 672.038 581.776C671.977 581.733 672.172 581.401 672.597 581.257C673.021 581.109 673.38 581.252 673.356 581.324Z" fill="#17282F"/>
<path d="M675.108 580.856C675.137 580.93 675.003 581.048 674.811 581.124C674.617 581.202 674.437 581.203 674.409 581.131C674.38 581.057 674.515 580.937 674.707 580.863C674.9 580.785 675.08 580.784 675.108 580.856Z" fill="#17282F"/>
<path d="M707.414 579.147L706.524 577.191L727.478 566.663L731.164 574.719L729.886 575.4C724.175 578.378 700.634 590.136 696.179 590.721C691.211 591.375 707.414 579.147 707.414 579.147Z" fill="#33535F"/>
<path d="M731.243 574.096C731.248 574.104 731.128 574.175 730.896 574.301C730.591 574.463 730.256 574.64 729.876 574.839C728.849 575.36 727.585 575.999 726.093 576.754C722.888 578.349 718.429 580.493 713.457 582.754C708.48 585.013 703.932 586.96 700.623 588.325C699.073 588.952 697.76 589.482 696.693 589.915C696.293 590.068 695.939 590.204 695.616 590.328C695.368 590.42 695.237 590.464 695.233 590.454C695.231 590.445 695.355 590.384 695.595 590.275C695.912 590.137 696.257 589.985 696.649 589.813C697.708 589.358 699.011 588.801 700.545 588.141C703.835 586.729 708.368 584.754 713.34 582.496C718.311 580.237 722.779 578.123 726.007 576.576C727.512 575.852 728.789 575.24 729.827 574.741C730.215 574.559 730.557 574.397 730.869 574.251C731.111 574.141 731.239 574.088 731.243 574.096Z" fill="#17282F"/>
<path d="M702.911 587.645C702.836 587.69 702.358 586.797 701.355 586.13C700.363 585.446 699.355 585.334 699.368 585.249C699.356 585.178 700.447 585.165 701.514 585.896C702.587 586.613 702.98 587.632 702.911 587.645Z" fill="#17282F"/>
<path d="M707.732 581.628C707.691 581.694 707.224 581.464 706.695 581.118C706.163 580.77 705.767 580.435 705.811 580.371C705.854 580.304 706.318 580.533 706.85 580.88C707.379 581.228 707.775 581.563 707.732 581.628Z" fill="#17282F"/>
<path d="M709.039 579.94C709.016 580.015 708.58 579.942 708.065 579.78C707.549 579.617 707.151 579.425 707.176 579.351C707.2 579.276 707.636 579.348 708.149 579.51C708.664 579.673 709.063 579.865 709.039 579.94Z" fill="#17282F"/>
<path d="M709.217 577.443C709.25 577.515 708.782 577.803 708.174 578.088C707.564 578.372 707.044 578.544 707.01 578.475C706.978 578.404 707.445 578.116 708.054 577.831C708.664 577.545 709.185 577.373 709.217 577.443Z" fill="#17282F"/>
<path d="M708.949 575.863C709.003 575.915 708.573 576.403 707.876 576.782C707.183 577.164 706.539 577.263 706.524 577.19C706.503 577.111 707.083 576.897 707.741 576.535C708.403 576.175 708.895 575.801 708.949 575.863Z" fill="#17282F"/>
<path d="M706.173 580.103C706.188 580.13 705.693 580.433 704.805 580.712C704.363 580.852 703.818 580.978 703.206 581.051C702.898 581.077 702.589 581.132 702.221 581.085C702.044 581.056 701.837 580.997 701.692 580.815C701.541 580.636 701.547 580.357 701.651 580.175C702.648 578.909 704.286 579.049 705.076 579.504C705.498 579.728 705.772 580.008 705.933 580.213C706.093 580.423 706.149 580.556 706.136 580.565C706.095 580.604 705.8 580.071 704.987 579.684C704.588 579.495 704.056 579.376 703.478 579.454C702.932 579.53 702.229 579.802 701.903 580.302C701.759 580.561 701.959 580.777 702.264 580.812C702.555 580.854 702.885 580.812 703.18 580.792C703.777 580.736 704.311 580.633 704.751 580.52C705.633 580.295 706.153 580.06 706.173 580.103Z" fill="#17282F"/>
<path d="M705.85 580.331C705.837 580.354 705.478 580.097 705.262 579.454C705.16 579.139 705.108 578.731 705.184 578.289C705.288 577.877 705.409 577.32 706.004 577.08C706.338 576.976 707.12 577.649 707.174 577.901C707.257 578.152 706.778 578.023 706.756 578.233C706.706 578.665 706.601 579.045 706.484 579.351C706.246 579.963 705.981 580.275 705.954 580.257C705.916 580.233 706.116 579.888 706.296 579.285C706.384 578.985 706.464 578.619 706.496 578.209C706.552 577.835 706.445 577.26 706.076 577.353C705.718 577.475 705.525 577.972 705.438 578.339C705.36 578.731 705.384 579.103 705.456 579.401C705.602 580.002 705.89 580.3 705.85 580.331Z" fill="#17282F"/>
<path d="M728.176 568.485C728.194 568.535 727.541 568.703 726.635 569.251C725.732 569.787 724.587 570.776 723.852 572.211C723.119 573.649 722.988 575.156 723.084 576.203C723.172 577.26 723.419 577.885 723.368 577.901C723.351 577.906 723.274 577.759 723.172 577.473C723.071 577.188 722.956 576.763 722.884 576.223C722.736 575.154 722.836 573.583 723.6 572.084C724.367 570.587 725.583 569.583 726.535 569.077C727.012 568.818 727.424 568.661 727.715 568.577C728.006 568.492 728.172 568.468 728.176 568.485Z" fill="#17282F"/>
<path d="M719.792 577.203C719.83 577.266 718.544 578.108 716.82 578.892C715.096 579.68 713.616 580.097 713.593 580.027C713.568 579.948 714.996 579.416 716.702 578.635C718.412 577.86 719.752 577.131 719.792 577.203Z" fill="#17282F"/>
<path d="M723.938 575.287C724.014 575.315 723.958 575.632 723.962 576.013C723.958 576.396 724.014 576.712 723.938 576.742C723.87 576.772 723.678 576.456 723.678 576.013C723.678 575.572 723.868 575.256 723.938 575.287Z" fill="#17282F"/>
<path d="M724.622 572.624C724.695 572.652 724.658 572.933 724.539 573.257C724.422 573.578 724.264 573.818 724.192 573.79C724.119 573.765 724.155 573.481 724.274 573.159C724.392 572.836 724.548 572.597 724.622 572.624Z" fill="#17282F"/>
<path d="M726.461 570.715C726.478 570.795 726.196 570.92 725.933 571.171C725.665 571.416 725.522 571.69 725.444 571.666C725.369 571.655 725.412 571.27 725.74 570.966C726.066 570.656 726.452 570.64 726.461 570.715Z" fill="#17282F"/>
<path d="M727.868 569.571C727.924 569.625 727.85 569.789 727.704 569.937C727.56 570.087 727.397 570.161 727.341 570.107C727.285 570.052 727.358 569.888 727.502 569.74C727.648 569.592 727.812 569.516 727.868 569.571Z" fill="#17282F"/>
<path d="M701.642 298.18L697.74 250.583L717.778 250.94C717.778 250.94 718.706 243.923 715.754 228.528C713.943 219.089 707.656 213.299 700.606 209.859L700.607 209.733L699.996 209.573C691.03 205.376 681.643 204.784 681.643 204.784L657.047 205.068C657.047 205.068 638.258 202.724 627.858 216.119C623.851 221.277 611.455 256.592 611.455 256.592L640.976 270.811L638.167 251.228C638.167 251.228 638.726 265.425 640.538 269.924C641.547 272.431 644.471 280.212 644.471 280.212L644.088 303.699L701.642 298.18Z" fill="#F03D5F"/>
<path d="M688.071 243.673L684.422 259.228H718.863L716.597 233.151L688.071 243.673Z" fill="#F03D5F"/>
<path d="M718.863 259.228C718.866 259.125 717.126 258.943 714.304 258.776C711.48 258.611 707.575 258.471 703.258 258.491C698.94 258.512 695.035 258.699 692.214 258.923C689.394 259.145 687.659 259.384 687.667 259.484C687.675 259.593 689.422 259.544 692.243 259.459C695.064 259.373 698.958 259.271 703.262 259.249C707.566 259.231 711.462 259.285 714.284 259.313C717.107 259.343 718.858 259.335 718.863 259.228Z" fill="#17282F"/>
<path d="M686.587 233.023C686.482 233.027 686.446 234.539 686.472 236.98C686.498 239.42 686.587 242.789 686.731 246.509C686.875 250.229 687.048 253.596 687.211 256.032C687.374 258.467 687.528 259.971 687.634 259.967C687.738 259.963 687.774 258.451 687.748 256.011C687.722 253.571 687.635 250.2 687.49 246.48C687.346 242.76 687.172 239.393 687.008 236.959C686.846 234.524 686.692 233.02 686.587 233.023Z" fill="#17282F"/>
<path d="M683.586 301.779C681.646 301.779 679.82 301.301 678.108 300.436L693.935 298.919C689.894 301.684 684.422 301.749 684.422 301.749C684.14 301.769 683.862 301.779 683.586 301.779Z" fill="#A7A9A8"/>
<path d="M678.108 300.436C661.382 291.985 655.247 246.495 655.247 246.495L697.224 292.66V295.195C696.451 296.795 695.271 298.004 693.935 298.919L678.108 300.436Z" fill="#D6002F"/>
<path d="M685.135 269.075L682.467 264.192L686.473 237.131C686.501 239.557 686.589 242.865 686.731 246.509C686.763 247.344 686.797 248.16 686.832 248.952L684.421 259.228H687.479C687.536 259.707 687.589 259.967 687.632 259.967H687.633C687.667 259.965 687.693 259.807 687.713 259.509C687.816 259.536 688.089 259.547 688.511 259.547C688.785 259.547 689.124 259.541 689.521 259.533L685.135 269.075Z" fill="#D6002F"/>
<path d="M687.479 259.228H684.422L686.833 248.952C686.953 251.693 687.086 254.143 687.211 256.032C687.307 257.452 687.398 258.556 687.479 259.228Z" fill="#D6002F"/>
<path d="M688.51 259.547C688.089 259.547 687.816 259.536 687.713 259.51C687.713 259.502 687.713 259.494 687.714 259.484L689.524 259.528L689.521 259.534C689.124 259.542 688.785 259.547 688.51 259.547Z" fill="#0F191D"/>
<path d="M687.632 259.967C687.59 259.967 687.536 259.707 687.479 259.228C687.398 258.556 687.307 257.452 687.211 256.032C687.086 254.143 686.952 251.693 686.832 248.952C686.798 248.16 686.763 247.344 686.731 246.509C686.59 242.865 686.502 239.557 686.474 237.131L686.587 236.368L687.667 259.484H687.715C687.714 259.493 687.714 259.501 687.714 259.509C687.694 259.807 687.667 259.965 687.634 259.967H687.632Z" fill="#0F191D"/>
<path d="M644.471 280.212C644.424 280.228 644.22 279.755 643.888 278.884C643.555 278.015 643.109 276.741 642.595 275.157C641.567 271.991 640.296 267.557 639.301 262.564C638.311 257.568 637.827 252.973 637.669 249.643C637.588 247.977 637.564 246.629 637.588 245.697C637.607 244.765 637.641 244.251 637.689 244.249C637.799 244.248 637.873 246.304 638.159 249.609C638.441 252.915 638.999 257.464 639.981 262.429C640.972 267.391 642.159 271.821 643.065 275.016C643.488 276.497 643.848 277.76 644.144 278.799C644.397 279.695 644.516 280.197 644.471 280.212Z" fill="#17282F"/>
<path d="M653.171 296.523C652.987 296.577 652.455 295.353 651.981 293.788C651.508 292.221 651.272 290.907 651.456 290.851C651.64 290.796 652.172 292.02 652.645 293.587C653.12 295.152 653.355 296.467 653.171 296.523Z" fill="#17282F"/>
<path d="M656.145 296.305C655.969 296.351 655.388 294.513 655.36 292.156C655.318 289.8 655.845 287.945 656.024 287.987C656.221 288.023 656.013 289.872 656.053 292.147C656.08 294.42 656.342 296.264 656.145 296.305Z" fill="#17282F"/>
<path d="M641.576 271.46C641.49 271.632 634.62 268.372 626.232 264.181C617.841 259.988 611.11 256.45 611.197 256.28C611.282 256.108 618.152 259.366 626.542 263.56C634.929 267.75 641.661 271.289 641.576 271.46Z" fill="#17282F"/>
<path d="M653.683 209.669C653.836 202.924 653.873 195.821 653.873 195.821C653.873 195.821 645.223 194.153 643.715 182.769C642.277 171.913 646.299 146.44 646.299 146.44C658.936 141.663 672.069 145.993 680.728 156.233L678.579 210.999C678.329 217.356 672.664 222.205 665.859 221.887C658.984 221.564 653.536 216.097 653.683 209.669Z" fill="#C0776A"/>
<path d="M645.642 166.799C645.594 167.565 646.205 168.239 647.005 168.301C647.805 168.365 648.49 167.796 648.537 167.029C648.585 166.263 647.974 165.589 647.176 165.525C646.374 165.461 645.689 166.032 645.642 166.799Z" fill="#17282F"/>
<path d="M645.1 164.888C645.276 165.083 646.399 164.295 647.963 164.34C649.527 164.363 650.653 165.198 650.828 165.01C650.915 164.927 650.74 164.58 650.249 164.203C649.765 163.828 648.935 163.454 647.961 163.434C646.985 163.412 646.157 163.751 645.676 164.106C645.187 164.462 645.015 164.8 645.1 164.888Z" fill="#17282F"/>
<path d="M661.516 167.787C661.47 168.553 662.08 169.225 662.88 169.291C663.679 169.353 664.367 168.785 664.414 168.017C664.46 167.251 663.85 166.577 663.05 166.513C662.251 166.449 661.563 167.02 661.516 167.787Z" fill="#17282F"/>
<path d="M661.411 165.877C661.587 166.072 662.71 165.286 664.274 165.33C665.836 165.352 666.964 166.187 667.14 166C667.224 165.916 667.051 165.571 666.559 165.194C666.076 164.818 665.247 164.444 664.271 164.423C663.298 164.403 662.468 164.74 661.987 165.096C661.498 165.452 661.324 165.791 661.411 165.877Z" fill="#17282F"/>
<path d="M655.433 177.333C655.442 177.245 654.474 177.052 652.903 176.81C652.505 176.758 652.129 176.669 652.069 176.394C651.981 176.104 652.159 175.677 652.366 175.217C652.766 174.261 653.186 173.257 653.626 172.206C655.378 167.917 656.658 164.386 656.483 164.317C656.31 164.248 654.75 167.668 652.997 171.957C652.575 173.016 652.171 174.024 651.787 174.988C651.623 175.438 651.35 175.946 651.538 176.55C651.639 176.852 651.926 177.076 652.181 177.152C652.434 177.237 652.659 177.246 652.857 177.264C654.441 177.39 655.423 177.422 655.433 177.333Z" fill="#17282F"/>
<path d="M653.873 195.821C653.873 195.821 661.488 196.509 669.161 192.161C669.161 192.161 665.277 199.855 653.958 198.501L653.873 195.821Z" fill="#AC584F"/>
<path d="M666.419 161.364C666.097 161.853 664.908 161.636 663.575 161.396C662.247 161.128 661.06 160.892 660.941 160.319C660.809 159.769 662.187 159.009 663.965 159.349C665.744 159.687 666.744 160.901 666.419 161.364Z" fill="#17282F"/>
<path d="M650.862 159.068C650.741 159.637 649.466 159.846 647.997 159.922C646.526 159.982 645.24 159.891 645.066 159.333C644.89 158.795 646.133 157.919 647.901 157.84C649.669 157.756 650.986 158.515 650.862 159.068Z" fill="#17282F"/>
<path d="M655.458 181.079C655.128 180.988 654.757 181.175 654.592 181.475C654.394 181.831 654.485 182.321 654.797 182.584C655.108 182.847 655.606 182.853 655.924 182.6C656.244 182.345 656.346 181.859 656.16 181.496C655.973 181.135 655.516 180.937 655.124 181.051" fill="#AC584F"/>
<path d="M655.824 181.233C655.895 181.17 655.575 180.786 654.891 180.934C654.576 181.005 654.161 181.289 654.035 181.773C653.911 182.229 654.024 182.821 654.507 183.19C655.007 183.544 655.609 183.47 656.007 183.2C656.432 182.92 656.553 182.408 656.487 182.088C656.349 181.385 655.829 181.273 655.815 181.372C655.756 181.46 655.996 181.702 655.951 182.118C655.927 182.322 655.831 182.512 655.633 182.608C655.44 182.714 655.133 182.713 654.957 182.578C654.773 182.449 654.679 182.157 654.717 181.933C654.745 181.71 654.895 181.542 655.076 181.44C655.447 181.23 655.776 181.329 655.824 181.233Z" fill="#17282F"/>
<path d="M675.488 169.609C674.14 172.735 670.848 175.143 671.305 178.516C671.598 180.695 672.996 182.725 672.724 184.905C672.382 187.645 669.537 189.544 669.136 192.273C668.641 195.623 671.898 198.225 673.2 201.351C675.094 205.903 672.67 211.02 672.613 215.949C672.526 223.5 678.947 230.553 686.473 231.173C689.517 231.424 692.945 230.505 694.524 227.891C695.825 225.732 695.565 222.992 696.346 220.596C697.509 217.027 700.91 214.416 701.628 210.732C702.934 204.016 694.817 198.459 695.352 191.637C695.58 188.724 697.378 186.181 698.145 183.36C699.145 179.664 698.228 175.501 695.762 172.571C693.76 170.188 690.854 168.621 689.148 166.019C687.213 163.067 687.146 159.324 686.417 155.871C684.64 147.457 678.32 140.147 670.252 137.171C662.182 134.195 652.63 135.651 645.813 140.896C645.813 140.896 643.874 149.684 652.896 151.153C661.916 152.623 666.096 150.927 667.113 154.543C667.113 154.543 666.086 158.767 669.814 162.8C673.545 166.835 677.049 165.991 675.488 169.609Z" fill="#17282F"/>
<path d="M689.882 230.558C689.878 230.582 689.597 230.552 689.06 230.472C688.524 230.389 687.737 230.21 686.765 229.853C684.838 229.149 682.11 227.616 679.785 224.686C678.63 223.236 677.548 221.474 676.818 219.405C676.072 217.348 675.645 215.016 675.605 212.56C675.548 210.101 675.897 207.525 676.568 204.946C676.902 203.654 677.337 202.368 677.844 201.089C678.342 199.805 678.956 198.568 679.308 197.258C679.686 195.953 679.636 194.62 679.294 193.348C678.946 192.074 678.354 190.88 677.777 189.697C677.197 188.516 676.605 187.337 676.224 186.084C675.836 184.841 675.692 183.501 675.944 182.252C676.476 179.74 678.001 177.881 678.901 175.974C679.854 174.084 680.152 172.088 680.108 170.294C679.946 166.662 678.398 163.977 677.136 162.429C675.817 160.878 674.818 160.289 674.869 160.224C674.869 160.224 675.926 160.722 677.34 162.253C678.694 163.781 680.366 166.504 680.598 170.273C680.678 172.13 680.394 174.234 679.42 176.225C678.5 178.202 677.028 180.074 676.573 182.373C676.104 184.689 677.2 187.074 678.388 189.396C678.969 190.58 679.585 191.805 679.961 193.166C680.334 194.518 680.389 196.045 679.977 197.438C679.598 198.837 678.973 200.09 678.485 201.345C677.986 202.598 677.557 203.858 677.225 205.121C676.56 207.642 676.206 210.157 676.246 212.55C676.261 217.356 677.912 221.558 680.17 224.382C682.385 227.273 685.002 228.833 686.865 229.601C688.752 230.365 689.9 230.48 689.882 230.558Z" fill="#33535F"/>
<path d="M688.555 163.277C688.559 163.321 687.856 163.448 686.568 163.573C685.285 163.68 683.391 163.828 681.077 163.429C678.817 163.016 675.957 161.905 674.147 159.224C673.259 157.879 672.907 156.251 672.328 154.748C671.784 153.228 670.732 151.912 669.291 151C666.373 149.152 662.941 148.924 659.939 148.559C656.921 148.219 654.088 147.579 652.168 146.137C650.233 144.761 649.241 142.973 648.985 141.685C648.841 141.041 648.853 140.523 648.883 140.183C648.931 139.84 648.968 139.665 648.992 139.668C649.077 139.669 648.9 140.401 649.249 141.62C649.571 142.825 650.573 144.473 652.449 145.736C654.299 147.045 657.009 147.619 660.015 147.923C662.989 148.259 666.543 148.444 669.668 150.417C671.209 151.379 672.404 152.889 672.963 154.503C673.556 156.089 673.888 157.652 674.685 158.877C676.311 161.359 679 162.493 681.171 162.947C683.397 163.396 685.273 163.327 686.552 163.304C687.836 163.263 688.549 163.227 688.555 163.277Z" fill="#33535F"/>
<path d="M685.246 152.418C685.254 152.453 684.708 152.622 683.684 152.649C682.668 152.677 681.146 152.497 679.474 151.701C678.64 151.305 677.784 150.737 676.997 149.978C676.197 149.224 675.541 148.248 674.928 147.218C673.725 145.19 672.569 142.689 670.076 141.654C667.633 140.608 664.942 140.841 662.605 140.998C660.245 141.232 658.033 141.3 656.229 140.945C654.413 140.629 653.05 139.877 652.296 139.181C651.913 138.836 651.653 138.529 651.51 138.301C651.361 138.076 651.293 137.954 651.312 137.94C651.368 137.897 651.686 138.369 652.468 138.972C653.244 139.573 654.554 140.217 656.31 140.461C658.066 140.741 660.18 140.629 662.55 140.361C664.9 140.176 667.67 139.881 670.357 141.02C671.685 141.585 672.769 142.582 673.54 143.664C674.325 144.745 674.888 145.876 675.48 146.896C676.069 147.916 676.673 148.849 677.402 149.569C678.124 150.297 678.916 150.858 679.694 151.262C681.257 152.073 682.704 152.325 683.69 152.378C684.682 152.436 685.238 152.358 685.246 152.418Z" fill="#33535F"/>
<path d="M693.862 227.681C693.794 227.651 694.218 226.793 694.71 225.152C695.2 223.516 695.685 221.056 695.598 218.005C695.494 214.973 694.765 211.307 692.757 207.824C691.781 206.077 690.3 204.521 689.092 202.604C688.492 201.647 687.976 200.573 687.749 199.385C687.526 198.196 687.661 196.933 688.044 195.787C688.792 193.485 690.132 191.545 690.42 189.429C690.776 187.307 689.704 185.371 688.689 183.649C688.176 182.772 687.661 181.905 687.261 180.999C686.862 180.092 686.608 179.137 686.508 178.215C686.305 176.361 686.521 174.659 686.658 173.131C687.042 170.085 686.76 167.583 686.026 166.045C685.314 164.488 684.384 164.021 684.453 163.959L684.614 164.035C684.712 164.099 684.868 164.183 685.038 164.339C685.394 164.628 685.869 165.141 686.269 165.927C687.113 167.484 687.476 170.1 687.146 173.172C687.038 174.707 686.861 176.389 687.078 178.144C687.256 179.916 688.169 181.589 689.24 183.323C689.758 184.201 690.306 185.117 690.692 186.156C691.086 187.188 691.265 188.367 691.092 189.523C690.768 191.855 689.394 193.828 688.705 195.996C688.348 197.077 688.233 198.189 688.428 199.26C688.63 200.328 689.098 201.325 689.67 202.245C690.813 204.088 692.304 205.675 693.31 207.504C695.357 211.124 696.046 214.896 696.09 217.993C696.113 221.112 695.542 223.601 694.969 225.233C694.669 226.048 694.418 226.672 694.201 227.075C694 227.484 693.884 227.692 693.862 227.681Z" fill="#33535F"/>
<path d="M639.549 476.116C639.549 476.116 630.57 390.992 630.054 359.54C629.538 328.085 644.197 297.05 644.197 297.05L701.641 294.621C701.641 294.621 712.994 326.536 713.198 339.94C713.593 365.992 706.276 391.718 707.12 412.384L709.04 476.116" fill="#17282F"/>
<path d="M710.962 371.469C710.974 371.489 710.648 371.734 710.025 372.178C709.865 372.292 709.69 372.416 709.501 372.548C709.321 372.701 709.146 372.892 708.945 373.085C708.541 373.473 708.072 373.912 707.665 374.518C705.81 376.79 704.457 380.848 703.172 385.912C702.462 388.426 701.745 391.248 700.262 394.009C699.866 394.684 699.51 395.398 698.988 396.026C698.738 396.345 698.512 396.689 698.238 396.996L697.353 397.88C696.153 399.06 694.634 399.949 693.033 400.652C689.817 402.061 686.188 402.729 682.87 404.393C679.533 406.018 677.032 409.169 675.498 412.797C673.881 416.41 672.9 420.204 671.55 423.745C670.225 427.258 668.421 430.678 665.554 432.838C662.71 435.077 659.197 435.589 656.153 435.785C653.061 435.965 650.197 435.877 647.628 436.265C645.069 436.62 642.801 437.432 641.198 438.692C639.589 439.956 638.65 441.541 638.209 442.898C637.754 444.272 637.836 445.43 637.986 446.168C638.136 446.917 638.346 447.274 638.3 447.294C638.3 447.294 638.048 446.957 637.852 446.201C637.65 445.454 637.52 444.256 637.952 442.82C638.369 441.398 639.304 439.737 640.956 438.388C642.613 437.038 644.945 436.174 647.554 435.78C650.17 435.353 653.066 435.414 656.114 435.21C659.129 434.992 662.492 434.464 665.165 432.329C667.873 430.27 669.613 426.981 670.916 423.502C672.241 420.002 673.216 416.204 674.866 412.512C676.414 408.821 679.068 405.469 682.564 403.786C686.012 402.074 689.644 401.428 692.778 400.064C694.34 399.388 695.79 398.548 696.937 397.433L697.786 396.598C698.05 396.306 698.269 395.977 698.512 395.672C699.017 395.076 699.368 394.384 699.757 393.736C701.217 391.07 701.962 388.28 702.698 385.78C704.041 380.744 705.489 376.62 707.453 374.35C707.884 373.746 708.38 373.312 708.806 372.933C709.018 372.745 709.204 372.557 709.393 372.412C709.592 372.286 709.776 372.17 709.944 372.064C710.602 371.652 710.95 371.448 710.962 371.469Z" fill="#FAFAF9"/>
<path d="M711.316 332.077C711.34 332.076 711.367 332.467 711.391 333.217C711.403 333.967 711.312 335.079 710.992 336.475C710.325 339.249 708.299 343.06 704.503 346.508C702.628 348.24 700.364 349.915 697.776 351.423C695.201 352.949 692.363 354.403 689.453 356.047C686.555 357.696 683.565 359.559 680.939 362.035C678.277 364.48 676.284 367.693 674.489 371.097C672.676 374.495 671.071 377.955 668.897 380.949C667.819 382.445 666.6 383.812 665.252 384.981C663.895 386.143 662.417 387.087 660.916 387.869C657.903 389.433 654.833 390.4 651.989 391.291C649.14 392.172 646.48 392.952 644.156 393.927C641.828 394.887 639.811 395.973 638.181 397.127C636.551 398.28 635.311 399.491 634.431 400.585C632.655 402.784 632.281 404.377 632.181 404.324C632.159 404.317 632.285 403.947 632.551 403.244C632.86 402.563 633.336 401.548 634.219 400.419C635.081 399.279 636.317 398.016 637.955 396.812C639.591 395.608 641.623 394.476 643.967 393.475C646.311 392.459 648.981 391.645 651.816 390.741C654.647 389.829 657.68 388.848 660.619 387.303C662.083 386.529 663.513 385.604 664.819 384.479C666.119 383.343 667.295 382.017 668.345 380.552C670.463 377.623 672.053 374.191 673.876 370.771C675.677 367.352 677.729 364.045 680.472 361.54C683.172 359.009 686.215 357.133 689.14 355.489C692.075 353.852 694.919 352.42 697.484 350.925C700.06 349.453 702.303 347.829 704.172 346.147C707.951 342.795 709.995 339.108 710.732 336.405C711.448 333.676 711.209 332.071 711.316 332.077Z" fill="#FAFAF9"/>
<path d="M630.345 364.047C630.333 364.051 630.294 363.965 630.228 363.789C630.17 363.611 630.047 363.355 629.97 362.995C629.807 362.283 629.705 361.157 630.103 359.799C630.845 357.084 633.794 353.707 638.546 352.013C640.912 351.201 643.594 350.711 646.389 349.98C649.152 349.235 652.162 348.192 654.412 345.881C655.528 344.741 656.472 343.384 657.256 341.892C658.022 340.387 658.653 338.771 659.249 337.103C660.444 333.777 661.446 330.163 663.476 326.879C665.49 323.568 668.774 321.268 672.173 320.116C675.563 318.871 678.981 318.319 682.153 317.587C685.334 316.895 688.308 315.999 690.832 314.632C693.318 313.219 695.301 311.337 696.703 309.343C699.581 305.343 700.333 301.247 700.436 298.541C700.498 295.791 700.061 294.293 700.152 294.28C700.152 294.28 700.685 295.752 700.705 298.547C700.685 301.293 699.999 305.489 697.103 309.627C695.69 311.689 693.674 313.651 691.111 315.135C688.525 316.567 685.489 317.497 682.296 318.211C679.108 318.963 675.709 319.529 672.41 320.753C669.09 321.896 666.006 324.073 664.064 327.247C662.105 330.411 661.098 333.984 659.889 337.331C659.285 339.011 658.638 340.655 657.845 342.199C657.032 343.733 656.04 345.147 654.862 346.336C652.474 348.759 649.329 349.808 646.534 350.536C643.699 351.252 641.033 351.711 638.701 352.48C634.078 354.057 631.144 357.295 630.362 359.879C629.94 361.175 629.991 362.263 630.106 362.968C630.255 363.669 630.376 364.037 630.345 364.047Z" fill="#FAFAF9"/>
<path d="M706.376 436.024C706.4 436.021 706.431 436.308 706.469 436.86C706.5 437.41 706.457 438.236 706.223 439.267C705.753 441.321 704.167 444.132 701.184 446.471C699.715 447.655 697.937 448.741 695.896 449.609C693.861 450.482 691.609 451.173 689.257 451.905C686.909 452.638 684.444 453.407 682.047 454.539C679.633 455.644 677.404 457.263 675.484 459.325C673.539 461.363 671.861 463.589 669.999 465.553C668.144 467.53 666.037 469.158 663.855 470.363C659.467 472.785 654.917 473.617 651.173 473.659C647.403 473.701 644.409 472.908 642.447 472.209C641.456 471.864 640.72 471.518 640.232 471.26C639.74 471.013 639.487 470.876 639.497 470.853C639.508 470.832 639.781 470.929 640.291 471.133C640.793 471.349 641.54 471.652 642.533 471.953C644.501 472.566 647.464 473.27 651.165 473.168C654.839 473.064 659.281 472.197 663.541 469.804C665.667 468.611 667.693 467.029 669.504 465.087C671.327 463.152 672.999 460.927 674.981 458.845C676.935 456.741 679.284 455.041 681.755 453.924C684.217 452.772 686.715 452.012 689.071 451.294C691.427 450.578 693.668 449.912 695.673 449.08C697.675 448.255 699.427 447.216 700.879 446.085C703.829 443.848 705.423 441.175 705.963 439.199C706.488 437.203 706.28 436.021 706.376 436.024Z" fill="#FAFAF9"/>
<path d="M699.828 259.284L688.721 259.546C687.992 263.288 686.209 265.848 686.209 265.848C676.921 249.725 669.72 228.125 667.932 219.444C668.193 218.576 668.501 217.617 668.887 216.544C669.331 215.306 668.949 212.964 668.74 211.662C668.428 209.73 667.888 207.129 667.725 205.925C667.231 202.257 666.64 201.681 665.36 202.096C663.62 202.66 666.073 212.398 664.647 212.609C663.88 212.722 662.943 209.386 662.672 206.649C662.4 203.912 661.161 195.492 660.256 194.93C658.931 194.108 657.775 195.409 658.109 198.134C658.448 200.894 658.876 209.121 657.429 209.233C656.004 209.342 654.808 195.382 654.808 195.382C654.808 195.382 655.033 192.345 653.359 192.417C650.337 192.549 652.699 207.266 652.956 208.66C653.137 209.63 651.568 209.808 651.429 208.756C651.288 207.672 650.559 194.794 647.483 194.898C645.121 194.978 649.311 207.026 647.985 209.82C646.66 212.612 645.74 200.334 643.485 200.504C642.647 200.566 642.027 200.73 643.568 207.678C644.397 211.413 646.831 218.28 648.959 223.964C652.531 243.232 668.207 304.866 692.785 293.584C706.537 287.27 712.119 259.29 712.119 259.29L699.828 259.284Z" fill="#C0776A"/>
<path d="M652.431 209.604C652.431 209.604 652.543 209.625 652.752 209.56C652.939 209.503 653.311 209.268 653.253 208.791C653.221 207.963 653.091 206.757 652.9 205.199C652.757 203.629 652.288 201.747 652.287 199.517C652.268 198.401 652.297 197.201 652.361 195.929C652.403 195.293 652.415 194.633 652.555 194.009C652.66 193.405 653.064 192.715 653.531 192.797L653.583 192.807L653.604 192.805C654.079 192.784 654.449 193.153 654.601 193.717C654.768 194.259 654.811 194.896 654.776 195.503L654.775 195.528L654.777 195.545C655.088 198.957 655.424 202.691 656.201 206.679C656.311 207.176 656.421 207.677 656.576 208.183C656.652 208.436 656.743 208.691 656.853 208.947C656.924 209.079 656.971 209.204 657.08 209.343C657.175 209.459 657.295 209.661 657.637 209.692C658.191 209.651 658.351 209.232 658.476 208.992C658.595 208.715 658.669 208.443 658.725 208.172C658.84 207.629 658.897 207.089 658.939 206.544C659.087 204.371 659.011 202.151 658.851 199.876C658.799 198.725 658.516 197.577 658.711 196.536C658.804 196.023 659.017 195.505 659.367 195.292C659.537 195.188 659.731 195.165 659.941 195.219L660.257 195.356C660.345 195.441 660.325 195.403 660.405 195.553C660.851 196.507 661.08 197.751 661.33 198.905C661.567 200.084 661.771 201.287 661.96 202.503C662.147 203.719 662.319 204.949 662.464 206.189C662.584 207.428 662.763 208.729 663.079 209.981C663.239 210.612 663.416 211.241 663.68 211.865C663.815 212.179 663.956 212.489 664.23 212.808C664.328 212.944 664.64 213.199 665.028 213.099C665.404 212.973 665.511 212.675 665.572 212.5C665.788 211.733 665.724 211.096 665.713 210.425C665.685 209.764 665.631 209.109 665.575 208.456C665.479 207.333 665.372 206.223 665.333 205.127C665.316 204.581 665.315 204.037 665.373 203.523C665.407 203.272 665.449 203.015 665.535 202.828L665.664 202.629L665.716 202.596L665.888 202.547C666.773 202.181 667.067 203.412 667.303 204.404C667.507 205.437 667.637 206.507 667.845 207.559C668.197 209.659 668.644 211.745 668.879 213.751C668.976 214.745 669.047 215.779 668.761 216.621C668.447 217.585 668.135 218.539 667.825 219.481L667.799 219.567L667.817 219.656C669.443 226.825 671.695 233.24 673.784 238.935C675.895 244.624 678.005 249.541 679.868 253.563C681.725 257.587 683.392 260.688 684.543 262.803C685.127 263.805 685.588 264.599 685.93 265.187C686.252 265.724 686.427 265.999 686.445 265.988C686.464 265.977 686.323 265.684 686.035 265.127C685.717 264.525 685.291 263.716 684.751 262.692C683.667 260.544 682.065 257.42 680.269 253.379C678.468 249.343 676.413 244.416 674.352 238.727C672.312 233.037 670.099 226.605 668.519 219.512L668.511 219.687C668.817 218.757 669.131 217.816 669.444 216.865C669.804 215.777 669.697 214.715 669.608 213.675C669.369 211.589 668.933 209.564 668.587 207.453C668.38 206.411 668.255 205.34 668.039 204.247C667.913 203.703 667.795 203.152 667.495 202.596C667.351 202.327 667.128 202.02 666.759 201.855C666.387 201.693 666.007 201.739 665.707 201.812L665.483 201.876L665.18 202.047C665.011 202.196 664.913 202.364 664.843 202.521C664.703 202.841 664.663 203.137 664.621 203.432C664.555 204.017 664.559 204.587 664.576 205.152C664.615 206.283 664.723 207.401 664.817 208.52C664.872 209.172 664.927 209.82 664.955 210.459C664.977 211.081 664.999 211.768 664.856 212.251C664.823 212.391 664.756 212.364 664.833 212.432L664.836 212.437L664.844 212.488L664.841 212.473L664.845 212.428L664.866 212.365L664.784 212.292C664.639 212.123 664.491 211.845 664.377 211.569C664.14 211.011 663.965 210.404 663.811 209.799C663.505 208.576 663.333 207.363 663.209 206.103C663.061 204.849 662.885 203.612 662.695 202.388C662.501 201.164 662.293 199.955 662.051 198.759C661.776 197.556 661.599 196.4 661.036 195.197C661.003 195.076 660.764 194.808 660.619 194.729C660.469 194.64 660.303 194.571 660.123 194.52C659.763 194.421 659.324 194.467 658.995 194.677C658.333 195.115 658.129 195.809 658.009 196.412C657.903 197.033 657.919 197.647 657.987 198.239C658.053 198.808 658.109 199.367 658.153 199.929C658.321 202.175 658.407 204.384 658.273 206.496C658.237 207.021 658.183 207.544 658.081 208.036C658.033 208.284 657.965 208.521 657.879 208.727L657.733 208.976C657.684 209.088 657.643 208.951 657.645 209.131C657.713 208.993 657.648 209.071 657.596 208.956L657.437 208.679C657.343 208.461 657.26 208.232 657.187 207.995C657.037 207.521 656.924 207.032 656.816 206.547C656.025 202.631 655.653 198.887 655.311 195.5V195.543C655.339 194.857 655.295 194.204 655.092 193.56C654.991 193.244 654.841 192.923 654.572 192.672C654.307 192.416 653.924 192.3 653.584 192.312L653.656 192.32C653.121 192.224 652.729 192.549 652.507 192.871C652.279 193.201 652.176 193.56 652.097 193.905C651.951 194.605 651.953 195.272 651.92 195.909C651.871 197.192 651.862 198.399 651.899 199.527C651.942 201.801 652.453 203.685 652.635 205.235C652.867 206.784 653.039 207.987 653.115 208.797C653.199 209.183 652.888 209.431 652.725 209.495C652.539 209.576 652.428 209.588 652.431 209.604Z" fill="#AC584F"/>
<path d="M565.597 277.641C565.597 277.641 561.908 277.465 557.873 278.527C550.988 280.339 539.101 287.543 538.609 296.441H547.243C547.243 296.441 542.408 306.733 543.828 305.78C547.515 303.307 554.853 295.851 554.853 295.851L565.597 277.641Z" fill="#C0776A"/>
<path d="M683.367 122.724C683.175 122.74 682.391 115.601 681.616 106.781C680.84 97.9588 680.367 90.7948 680.558 90.7774C680.75 90.7614 681.532 97.8974 682.308 106.721C683.084 115.541 683.558 122.707 683.367 122.724Z" fill="#17282F"/>
<path d="M721.243 91.2132C721.399 91.3252 715.565 99.7905 708.215 110.12C700.864 120.453 694.777 128.737 694.621 128.628C694.465 128.516 700.297 120.052 707.649 109.718C715 99.3878 721.087 91.1012 721.243 91.2132Z" fill="#17282F"/>
<path d="M736.978 129.583C737.018 129.771 730.21 131.329 721.777 133.063C713.34 134.796 706.472 136.049 706.432 135.861C706.394 135.673 713.201 134.116 721.637 132.383C730.072 130.649 736.941 129.396 736.978 129.583Z" fill="#17282F"/>
<path d="M283.5 312.724L236.352 555.123L230.18 586.854L544.93 585.302C559.056 585.232 571.574 572.69 576.118 554.056L631.93 325.207C635.381 311.061 627.81 296.348 617.089 296.359L298.524 296.693C291.49 296.701 285.34 303.264 283.5 312.724Z" fill="#F03D5F"/>
<path d="M548.953 584.942C551.218 584.397 553.146 583.792 554.789 583.161C552.904 583.992 550.952 584.592 548.953 584.942Z" fill="#7E1C2C"/>
<path d="M552.174 577.802C518.034 577.802 514.742 538.728 514.739 538.7L484.682 296.497L617.09 296.359C617.094 296.359 617.096 296.359 617.102 296.359C626.038 296.359 632.782 306.589 632.775 318.187C632.772 320.496 632.504 322.858 631.931 325.206L607.904 423.724L598.334 462.969L576.119 554.056C573.776 563.664 569.314 571.652 563.603 577.147C563.891 576.69 563.979 576.42 563.979 576.42C559.684 577.371 555.756 577.802 552.174 577.802Z" fill="#D6002F"/>
<path d="M514.739 538.7L481.413 270.156C480.048 259.154 471.283 250.945 460.933 250.979L387.859 251.218C382.449 251.236 377.264 253.535 373.423 257.619L338.724 294.504L135.488 295.565C123.069 295.629 113.527 307.381 115.173 320.585L146.115 568.788C147.484 579.776 156.233 587.973 166.568 587.954L520.763 587.254C560.212 588.071 563.979 576.42 563.979 576.42C518.768 586.439 514.743 538.731 514.739 538.7Z" fill="#F03D5F"/>
<path d="M350.065 497.784L310.665 462.34L322.611 449.509L362.012 484.955L350.065 497.784ZM297.462 450.463L258.062 415.019L270.008 402.188L309.408 437.632L297.462 450.463Z" fill="#F68AA6"/>
<path d="M275.015 500.629L261.813 488.752L297.463 450.463L309.408 437.632L345.059 399.343L358.261 411.22L322.611 449.509L310.665 462.34L275.015 500.629Z" fill="#F68AA6"/>
<path d="M565.315 138.377C564.464 138.013 563.852 137.184 563.808 136.196L563.276 123.819C563.242 123.04 563.575 122.289 564.175 121.795C564.775 121.297 565.575 121.111 566.332 121.291C568.322 121.76 570.516 121.328 572.352 120.101C574.043 118.973 575.178 117.312 575.466 115.543C575.754 113.78 575.207 111.828 573.97 110.188C572.642 108.433 570.682 107.249 568.715 107.025C564.7 106.563 560.366 109.639 559.25 113.741C558.89 115.068 557.523 115.851 556.198 115.491C554.85 115.12 554.088 113.763 554.448 112.437C556.2 105.987 562.856 101.341 569.286 102.081C572.619 102.465 575.778 104.328 577.938 107.188C579.994 109.908 580.882 113.244 580.376 116.344C579.867 119.471 577.95 122.348 575.115 124.24C573.067 125.607 570.716 126.36 568.367 126.443L568.78 135.984C568.839 137.356 567.774 138.517 566.402 138.575C566.016 138.592 565.647 138.52 565.315 138.377Z" fill="#F03D5F"/>
<path d="M568.963 143.435C569.039 144.556 568.193 145.528 567.072 145.605C565.951 145.683 564.977 144.836 564.901 143.713C564.824 142.593 565.671 141.621 566.792 141.544C567.915 141.467 568.885 142.313 568.963 143.435Z" fill="#F03D5F"/>
<path d="M522.47 120.924C522.486 120.924 522.528 120.649 522.59 120.112C522.653 119.532 522.741 118.743 522.852 117.728C522.912 116.673 523.181 115.399 523.497 113.896C523.672 113.149 523.764 112.319 524.037 111.479C524.297 110.633 524.573 109.736 524.865 108.787C526.154 105.041 528.144 100.552 531.494 96.084C534.82 91.6266 539.496 87.224 545.498 83.8866C548.453 82.124 551.834 80.896 555.377 79.812C558.977 78.9586 562.792 78.2293 566.777 78.3226C568.77 78.216 570.78 78.508 572.826 78.68C573.85 78.7786 574.857 79.0519 575.884 79.2306C576.912 79.4213 577.945 79.6213 578.952 79.9706C583.068 81.0266 587.066 82.9679 590.877 85.3746C598.526 90.1879 604.968 98.0159 608.501 107.508C610.273 112.256 611.121 117.461 611.114 122.719C611.22 127.987 610.2 133.339 608.325 138.375L607.724 139.897L607.644 140.099L607.726 140.287C611.07 147.989 614.35 155.544 617.529 162.863L618.088 162.227C611.202 159.58 604.526 157.016 598.121 154.555L597.873 154.46L597.68 154.648C592.14 160.015 585.524 163.644 578.824 165.533C572.104 167.428 565.336 167.525 559.18 166.432C553.01 165.339 547.456 162.979 542.824 159.945C538.178 156.912 534.453 153.224 531.581 149.477C528.73 145.687 526.852 141.801 525.434 138.332C524.186 134.785 523.421 131.637 523.05 129.032C522.893 127.731 522.753 126.573 522.632 125.564C522.605 124.567 522.584 123.719 522.565 123.016C522.542 122.361 522.526 121.844 522.513 121.455C522.497 121.104 522.482 120.924 522.47 120.924C522.458 120.924 522.448 121.101 522.438 121.453C522.433 121.844 522.425 122.36 522.418 123.019C522.417 123.724 522.414 124.577 522.413 125.58C522.516 126.599 522.633 127.765 522.765 129.077C523.094 131.708 523.822 134.893 525.044 138.493C526.437 142.015 528.302 145.965 531.157 149.827C534.034 153.647 537.786 157.412 542.481 160.519C547.162 163.625 552.79 166.053 559.053 167.192C565.302 168.331 572.182 168.259 579.028 166.353C585.852 164.452 592.602 160.773 598.262 155.312L597.821 155.405C604.224 157.876 610.896 160.451 617.778 163.108L618.785 163.496L618.34 162.471C615.166 155.148 611.89 147.593 608.55 139.888L608.553 140.276L609.168 138.721C611.085 133.572 612.124 128.1 612.016 122.716C612.02 117.343 611.144 112.021 609.329 107.172C605.709 97.4773 599.12 89.5106 591.316 84.628C587.429 82.1853 583.352 80.2253 579.16 79.1613C578.134 78.812 577.084 78.6106 576.037 78.42C574.99 78.2413 573.966 77.9679 572.926 77.8733C570.845 77.7053 568.801 77.4186 566.777 77.5346C562.726 77.4559 558.852 78.2133 555.204 79.1013C551.609 80.2199 548.186 81.4866 545.198 83.2933C539.129 86.716 534.422 91.216 531.096 95.7586C527.745 100.309 525.781 104.873 524.532 108.667C524.252 109.628 523.985 110.539 523.737 111.395C523.476 112.244 523.396 113.084 523.233 113.839C522.944 115.359 522.701 116.644 522.67 117.707C522.597 118.727 522.54 119.523 522.498 120.107C522.465 120.647 522.454 120.923 522.47 120.924Z" fill="#17282F"/>
</g>
<defs>
<clipPath id="clip0_261_263">
<rect width="802.067" height="590.747" fill="white"/>
</clipPath>
</defs>
</svg>
