<svg width="35" height="26" viewBox="0 0 35 26" fill="none" xmlns="http://www.w3.org/2000/svg">
<path d="M22.7881 8.08682C23.1682 10.1204 20.7831 9.19862 23.3583 12.6481C23.6814 13.0852 22.9782 13.3798 22.465 13.5128C21.9804 13.6173 22.1704 13.7599 22.218 14.1115C22.275 14.4631 22.3795 14.9002 22.3225 15.0902C22.2655 15.2518 21.4292 15.1473 21.6478 15.1948C21.8949 15.2233 22.1039 15.6319 21.9709 15.8504C21.8094 16.0975 21.1347 16.5251 21.1347 17.0763C21.0776 21.2764 16.4119 15.8029 15.8417 18.1881C15.5661 19.3569 14.4258 18.6537 12.9909 18.3781C12.8294 15.1758 13.5896 13.7694 16.792 11.2702C27.7865 2.75586 0.837098 -4.33309 4.58112 8.47643C5.77845 12.572 9.37994 16.2591 13.0765 19.2429C12.3162 19.1859 11.5845 19.4044 10.9289 19.8701C10.1401 20.3832 9.68402 21.1434 9.51298 22.0652C9.48447 22.1982 9.48447 22.3407 9.48447 22.4453C5.05625 18.6727 0.66605 14.0069 0.0958931 10.1584C-1.66209 -1.62485 21.3152 -3.68691 22.7881 8.08682ZM17.6852 22.6543C19.2341 21.571 23.9569 17.5799 25.0117 16.4681C34.7519 6.12928 24.5461 -0.161444 18.9301 1.68206C26.3136 -4.3711 51.7426 6.67093 17.7042 22.6828L17.6852 22.6543Z" fill="url(#paint0_linear_297_29)"/>
<path fill-rule="evenodd" clip-rule="evenodd" d="M13.5044 19.9177C14.2361 20.0507 14.8347 20.4308 15.2434 21.0295C15.6805 21.6567 15.8135 22.3028 15.6805 23.0631C15.5474 23.7948 15.1958 24.3649 14.5687 24.802C13.97 25.2392 13.2953 25.3722 12.5636 25.2677C11.8319 25.1346 11.2618 24.7545 10.8246 24.1273C10.3875 23.5287 10.2545 22.854 10.359 22.1223C10.492 21.3906 10.8722 20.7919 11.4708 20.3548C12.0885 19.9462 12.7727 19.7847 13.5044 19.9177Z" fill="url(#paint1_linear_297_29)"/>
<defs>
<linearGradient id="paint0_linear_297_29" x1="28.5078" y1="8.94511" x2="35.3814" y2="9.45883" gradientUnits="userSpaceOnUse">
<stop stop-color="#D6002F"/>
<stop offset="1" stop-color="#F3734F"/>
</linearGradient>
<linearGradient id="paint1_linear_297_29" x1="14.7273" y1="22.0132" x2="15.7921" y2="22.0645" gradientUnits="userSpaceOnUse">
<stop stop-color="#D6002F"/>
<stop offset="1" stop-color="#F3734F"/>
</linearGradient>
</defs>
</svg>
