<svg width="37" height="24" viewBox="0 0 37 24" fill="none" xmlns="http://www.w3.org/2000/svg">
<path d="M23.9809 8.51011C24.3809 10.6501 21.8709 9.68011 24.5809 13.3101C24.9209 13.7701 24.1809 14.0801 23.6409 14.2201C23.1309 14.3301 23.3309 14.4801 23.3809 14.8501C23.4409 15.2201 23.5509 15.6801 23.4909 15.8801C23.4309 16.0501 22.5509 15.9401 22.7809 15.9901C23.0409 16.0201 23.2609 16.4501 23.1209 16.6801C22.9509 16.9401 22.2409 17.3901 22.2409 17.9701C22.1809 22.3901 17.2709 16.6301 16.6709 19.1401C16.3809 20.3701 15.1809 19.6301 13.6709 19.3401C13.5009 15.9701 14.3009 14.4901 17.6709 11.8601C29.2409 2.90011 0.880914 -4.55989 4.82091 8.9201C6.08091 13.2301 9.87091 17.1101 13.7609 20.2501C12.9609 20.1901 12.1909 20.4201 11.5009 20.9101C10.6709 21.4501 10.1909 22.2501 10.0109 23.2201C9.98091 23.3601 9.98091 23.5101 9.98091 23.6201C5.32091 19.6501 0.700913 14.7401 0.100913 10.6901C-1.74909 -1.70989 22.4309 -3.8799 23.9809 8.51011ZM18.6109 23.8401C20.2409 22.7001 25.2109 18.5001 26.3209 17.3301C36.5709 6.45011 25.8309 -0.169899 19.9209 1.77011C27.6909 -4.59989 54.4509 7.0201 18.6309 23.8701L18.6109 23.8401Z" fill="url(#paint0_linear_235_3)"/>
<defs>
<linearGradient id="paint0_linear_235_3" x1="0.241212" y1="9.8483" x2="37.2412" y2="9.8483" gradientUnits="userSpaceOnUse">
<stop stop-color="#D6002F"/>
<stop offset="1" stop-color="#F3734F" stop-opacity="0.78"/>
</linearGradient>
</defs>
</svg>
