<svg width="40" height="40" viewBox="0 0 40 40" fill="none" xmlns="http://www.w3.org/2000/svg">
<path fill-rule="evenodd" clip-rule="evenodd" d="M1.90039 8.84445C1.90039 8.0744 2.52462 7.4502 3.29462 7.4502H36.7561C37.5261 7.4502 38.1504 8.0744 38.1504 8.84445C38.1504 9.61445 37.5261 10.2387 36.7561 10.2387H3.29462C2.52462 10.2387 1.90039 9.61445 1.90039 8.84445Z" fill="black"/>
<path fill-rule="evenodd" clip-rule="evenodd" d="M13.0547 19.9977C13.0547 19.2277 13.6789 18.6035 14.4489 18.6035H36.7566C37.5266 18.6035 38.1508 19.2277 38.1508 19.9977C38.1508 20.7677 37.5266 21.3919 36.7566 21.3919H14.4489C13.6789 21.3919 13.0547 20.7677 13.0547 19.9977Z" fill="black"/>
<path fill-rule="evenodd" clip-rule="evenodd" d="M1.90039 31.152C1.90039 30.382 2.52462 29.7578 3.29462 29.7578H36.7561C37.5261 29.7578 38.1504 30.382 38.1504 31.152C38.1504 31.922 37.5261 32.5462 36.7561 32.5462H3.29462C2.52462 32.5462 1.90039 31.922 1.90039 31.152Z" fill="black"/>
</svg>
